<svg version="1.1" id="Layer_1" xmlns="http://www.w3.org/2000/svg" xmlns:xlink="http://www.w3.org/1999/xlink" x="0px" y="0px"
	 width="100%" viewBox="0 0 1590 308" enable-background="new 0 0 1590 308" xml:space="preserve">
<path fill="#FEFEFE" opacity="1.000000" stroke="none" 
	d="
M1057.000000,309.000000 
	C704.712952,309.000000 352.925934,309.000000 1.069456,309.000000 
	C1.069456,206.393188 1.069456,103.786316 1.069456,1.089723 
	C531.000000,1.089723 1061.000000,1.089723 1590.964600,1.089723 
	C1590.964600,103.740829 1590.964600,206.370422 1590.964600,309.000000 
	C1413.119507,309.000000 1235.309814,309.000000 1057.000000,309.000000 
M262.967041,245.680344 
	C263.027985,246.108231 263.088928,246.536118 263.006622,247.783813 
	C266.799408,278.743347 291.533020,300.827942 322.701141,300.903900 
	C356.178802,300.985504 389.657349,301.021973 423.134247,300.842194 
	C429.918427,300.805786 436.774872,300.175781 443.466003,299.041016 
	C506.933777,288.277740 542.833618,217.593628 514.491577,159.475311 
	C506.587006,143.266159 495.005249,130.271957 480.075104,119.976547 
	C484.929291,103.746414 485.204956,87.552818 481.039276,71.219994 
	C471.915100,35.445797 438.301636,6.924123 402.045685,5.012579 
	C373.044800,5.065315 344.043945,5.118052 314.241577,5.069411 
	C312.612610,5.375053 310.981232,5.668527 309.355011,5.988157 
	C284.887268,10.797232 264.281891,34.013187 263.004944,58.953999 
	C263.004944,83.001381 263.004944,107.048767 263.004944,131.096146 
	C262.435638,131.125259 261.866333,131.154358 261.296997,131.183472 
	C261.145233,130.469055 260.993469,129.754639 260.967285,128.240891 
	C256.451813,103.709709 239.157944,89.175179 214.410431,89.149719 
	C195.246918,89.129997 176.082748,89.061928 156.920319,89.207230 
	C152.286163,89.242355 147.556808,89.570953 143.042725,90.552994 
	C107.964668,98.184242 86.957474,129.569885 93.009003,165.019608 
	C97.551048,191.626740 122.891418,214.618546 149.952133,215.997559 
	C172.633881,215.993469 195.315628,215.989380 218.330307,216.181732 
	C218.330307,216.181732 218.710709,216.112961 218.887665,216.998764 
	C218.969574,220.344940 219.051483,223.691116 218.994568,227.960754 
	C218.968491,238.200974 218.942413,248.441177 217.995270,258.789276 
	C194.691284,258.742249 171.387283,258.695190 147.371155,258.285645 
	C144.077362,257.871704 140.772812,257.528900 137.491364,257.033264 
	C80.403587,248.410889 39.938560,190.366791 51.269001,133.377075 
	C61.427261,82.283165 104.327942,47.045048 156.435760,47.007713 
	C177.582611,46.992561 198.730530,47.132462 219.876068,46.963696 
	C241.010422,46.795021 259.519073,29.481087 260.997681,8.074911 
	C261.686218,4.898601 259.886200,4.669658 257.365326,4.685636 
	C243.717453,4.772140 230.068497,4.677567 216.420319,4.737542 
	C192.291229,4.843575 168.162430,5.016006 143.185013,5.031393 
	C137.914886,5.734215 132.598740,6.192957 127.381546,7.176542 
	C51.499855,21.482327 -1.149387,93.028389 8.235543,170.177200 
	C13.710074,215.180573 35.824512,250.697220 73.425812,276.178558 
	C96.788567,292.010834 122.762383,300.178375 151.958008,300.975464 
	C174.958496,300.928680 197.958984,300.881897 221.778885,300.974945 
	C241.968994,298.913422 256.689819,286.112518 260.411560,266.291779 
	C261.709167,259.381073 261.009247,252.095245 262.032959,245.022659 
	C262.303680,245.028976 262.574432,245.035294 262.967041,245.680344 
M711.941223,162.341644 
	C722.951111,162.272125 733.961060,162.202591 745.620544,162.187103 
	C745.727112,161.795792 745.833740,161.404480 746.072571,160.083527 
	C746.072571,121.503426 746.072571,82.923332 746.072571,44.158264 
	C734.582520,44.158264 722.785889,44.158264 710.316833,44.091400 
	C710.187927,45.738434 710.059021,47.385468 709.726624,49.947037 
	C710.013245,64.224251 710.547607,78.501770 710.529785,92.778603 
	C710.501404,115.508598 710.105225,138.238144 709.783203,161.683380 
	C710.199158,161.827316 710.615112,161.971268 711.941223,162.341644 
M1336.500000,162.261459 
	C1336.674561,162.205521 1336.849121,162.149597 1337.930176,162.341217 
	C1359.943848,162.264328 1381.957397,162.187439 1404.690918,162.190659 
	C1404.956909,161.828033 1405.222900,161.465424 1405.789429,160.345413 
	C1406.324951,153.046204 1406.800659,145.741943 1407.416748,138.449554 
	C1407.843628,133.396179 1406.990356,132.371719 1401.776245,132.341827 
	C1398.447021,132.322739 1395.117432,132.338959 1391.788086,132.339005 
	C1384.870728,132.339142 1377.953491,132.339050 1370.582275,132.339050 
	C1370.582275,127.668419 1370.509644,123.688583 1370.594238,119.712097 
	C1371.100830,95.915382 1371.692749,72.120178 1372.051636,48.321396 
	C1372.073120,46.897961 1370.358643,44.221466 1369.399414,44.197113 
	C1357.978882,43.907162 1346.548462,44.010166 1334.976196,44.010166 
	C1335.056274,45.697876 1335.111084,46.853378 1335.025146,48.928066 
	C1335.207520,53.687420 1335.389893,58.446774 1335.576538,64.116920 
	C1335.773193,73.747581 1335.969727,83.378242 1336.026123,93.930756 
	C1336.208374,99.022392 1336.390747,104.114037 1336.574219,110.116653 
	C1336.563110,118.676987 1336.552124,127.237320 1336.066162,136.427536 
	C1336.099487,138.282013 1336.132812,140.136475 1336.011475,142.903625 
	C1335.857544,146.681870 1335.611206,150.459396 1335.581177,154.238632 
	C1335.560547,156.848724 1335.838867,159.461182 1336.500000,162.261459 
M1468.986328,182.430908 
	C1468.666626,182.332794 1468.347046,182.234680 1467.096924,181.987396 
	C1438.723999,182.037003 1410.351074,182.086624 1381.229370,182.085449 
	C1380.977661,182.441177 1380.725952,182.796906 1380.186279,183.883789 
	C1379.707642,191.026184 1379.415527,198.187790 1378.681885,205.303894 
	C1378.228394,209.702805 1379.621826,211.316742 1384.128540,211.145676 
	C1391.710327,210.857895 1399.310913,211.066864 1407.742432,211.066864 
	C1407.742432,217.431625 1407.808838,224.236984 1407.730347,231.040665 
	C1407.472900,253.342041 1407.162720,275.642822 1406.603149,298.446198 
	C1407.070312,298.977905 1407.537476,299.509613 1408.921631,300.248932 
	C1419.946045,300.175415 1430.970337,300.101898 1442.572144,300.077789 
	C1442.658447,299.729919 1442.744629,299.382019 1442.962036,298.115448 
	C1442.962036,268.858856 1442.962036,239.602249 1442.962036,210.617126 
	C1451.539307,210.617126 1460.115234,210.617126 1468.768311,210.617126 
	C1469.423340,202.616547 1470.152588,194.678192 1470.641113,186.725113 
	C1470.716187,185.501144 1469.685181,184.209213 1468.986328,182.430908 
M693.347595,111.383453 
	C693.347595,110.328537 693.347595,109.273628 693.347595,107.852921 
	C690.502808,108.279274 688.241943,108.618126 685.068115,108.823059 
	C676.804749,109.342926 668.541443,109.862793 660.330811,110.379349 
	C660.330811,115.046844 660.330811,119.188759 660.330811,123.330666 
	C660.330811,127.477333 660.330811,131.623993 660.330811,135.786026 
	C647.064697,140.669571 634.315063,134.418625 632.626953,120.764374 
	C631.273315,109.815666 631.393860,98.470619 632.561523,87.482262 
	C633.822632,75.614746 639.697876,71.535004 651.972046,71.303207 
	C661.842834,71.116783 670.915527,74.169388 679.706421,78.344490 
	C681.529358,79.210258 683.527222,79.707687 685.767334,80.487213 
	C688.531189,68.982658 691.102661,58.279053 693.729370,47.345528 
	C672.554443,40.765560 651.878113,39.693130 631.277954,46.121178 
	C612.844543,51.873142 600.660522,64.253624 595.628662,83.125870 
	C591.694885,97.879692 591.548584,112.794556 595.477966,127.515106 
	C600.322510,145.664200 611.810669,157.596512 630.304688,162.172501 
	C651.753662,167.479660 672.440063,163.962646 693.093384,156.633163 
	C693.093384,141.653488 693.093384,126.845680 693.347595,111.383453 
M1206.798096,162.190323 
	C1206.947632,161.770203 1207.097046,161.350067 1207.190918,160.127502 
	C1196.682617,121.482956 1186.174194,82.838402 1175.653076,44.147018 
	C1160.666382,44.147018 1146.048706,44.147018 1131.337280,44.147018 
	C1131.116211,44.859650 1130.923218,45.470703 1130.737183,46.083836 
	C1123.139160,71.120201 1115.498169,96.143707 1107.962280,121.198753 
	C1104.152588,133.864777 1100.532471,146.587814 1096.233643,159.803497 
	C1096.494751,160.577240 1096.755859,161.350967 1097.930908,162.341522 
	C1108.611450,162.266754 1119.291870,162.191971 1130.691406,162.144653 
	C1130.879150,161.735260 1131.066895,161.325867 1131.710938,160.293716 
	C1132.586426,154.598145 1133.461914,148.902557 1134.492554,142.197647 
	C1144.760254,142.197647 1154.978394,142.112381 1165.189331,142.339539 
	C1166.131958,142.360519 1167.567383,144.245270 1167.855469,145.479034 
	C1169.050171,150.597504 1169.892212,155.798294 1170.893555,161.655670 
	C1171.273193,161.813644 1171.652954,161.971619 1172.945557,162.341339 
	C1183.956055,162.262863 1194.966431,162.184402 1206.798096,162.190323 
M795.933411,155.215378 
	C796.622375,151.039062 797.311279,146.862762 798.045959,142.409363 
	C809.276428,142.409363 819.869568,142.409363 830.694519,142.409363 
	C831.859009,148.697708 833.000305,154.861115 834.100525,161.607620 
	C834.405273,161.759888 834.709961,161.912170 835.916138,162.336975 
	C847.268372,162.268265 858.620544,162.199539 870.608459,162.191742 
	C870.687561,161.805069 870.766602,161.418411 870.854614,160.266800 
	C860.206848,121.488121 849.559082,82.709450 838.929077,43.995377 
	C825.123352,43.995377 811.960938,44.120480 798.803955,43.907944 
	C795.490051,43.854408 794.323242,44.972176 793.416077,48.050827 
	C787.044067,69.675751 780.408508,91.222832 773.927002,112.815765 
	C769.212891,128.520554 764.605652,144.257416 759.500488,160.489227 
	C760.003418,161.025284 760.506348,161.561340 761.919067,162.338242 
	C772.609924,162.240845 783.300781,162.143433 794.559265,162.064407 
	C794.651917,161.719711 794.744507,161.375015 795.034302,160.298080 
	C795.052063,159.544403 795.069824,158.790726 795.412170,157.602814 
	C795.486511,157.075150 795.560913,156.547485 795.933411,155.215378 
M1349.097778,181.987900 
	C1335.391357,182.037079 1321.684937,182.086258 1307.491211,182.025269 
	C1307.491211,182.025269 1307.054321,182.267517 1306.376831,182.524612 
	C1294.653076,221.361908 1282.929321,260.199188 1271.069336,299.622040 
	C1271.383301,299.764984 1271.697266,299.907928 1272.929321,300.248749 
	C1283.617310,300.176910 1294.305176,300.105103 1305.514526,300.170624 
	C1305.667114,300.075806 1305.819702,299.980957 1306.705688,299.567108 
	C1307.501587,294.345856 1308.126709,289.088654 1309.212280,283.928314 
	C1309.487549,282.619598 1311.204468,280.655518 1312.300659,280.627625 
	C1322.348267,280.372162 1332.405151,280.477325 1342.518555,280.477325 
	C1343.725220,286.752197 1344.904419,292.883820 1346.057861,299.613373 
	C1346.375366,299.757080 1346.692749,299.900787 1347.926636,300.251251 
	C1358.949341,300.174896 1369.972046,300.098572 1381.660889,300.199188 
	C1382.024292,299.806488 1382.387695,299.413788 1382.699219,298.271393 
	C1378.458008,282.797150 1374.240479,267.316376 1369.969849,251.850235 
	C1363.629639,228.888794 1357.251953,205.937698 1350.923096,182.456177 
	C1350.624268,182.353073 1350.325439,182.249985 1349.097778,181.987900 
M1521.621826,162.189377 
	C1521.713623,161.800201 1521.805298,161.411026 1521.930664,160.246979 
	C1511.294434,121.480377 1500.658081,82.713768 1490.035034,43.995403 
	C1476.076782,43.995403 1462.754395,44.078007 1449.434692,43.929482 
	C1446.585571,43.897713 1445.521118,44.781628 1444.706299,47.554981 
	C1439.708862,64.565750 1434.391479,81.482132 1429.284668,98.461266 
	C1423.033447,119.245255 1416.884644,140.059982 1410.261841,161.292679 
	C1410.849854,161.562103 1411.437744,161.831528 1412.933960,162.339386 
	C1423.616699,162.257309 1434.299316,162.175232 1445.583252,162.126724 
	C1445.680908,161.759354 1445.778564,161.391998 1446.092773,160.222443 
	C1447.092529,154.401382 1448.092407,148.580338 1449.147461,142.437012 
	C1460.331543,142.437012 1471.037109,142.437012 1481.839478,142.437012 
	C1483.047241,149.227448 1484.197021,155.692566 1485.341675,162.128326 
	C1497.465332,162.128326 1509.219116,162.128326 1521.621826,162.189377 
M1220.996460,161.660522 
	C1221.341309,161.818405 1221.686035,161.976288 1222.944458,162.343307 
	C1233.958740,162.268616 1244.973022,162.193924 1256.539062,162.277130 
	C1256.726929,161.502151 1256.914917,160.727188 1257.294922,159.037140 
	C1257.294922,148.466583 1257.294922,137.896027 1257.294922,127.076759 
	C1258.825562,127.076759 1260.851929,127.342834 1262.781006,127.022751 
	C1267.127075,126.301582 1269.070068,128.125320 1270.704590,132.166351 
	C1274.427246,141.370300 1278.872314,150.281464 1282.996826,159.323944 
	C1284.786011,163.246674 1287.405518,165.207672 1292.032715,164.283768 
	C1300.971802,162.498947 1310.031738,161.293625 1318.931885,159.347000 
	C1326.474976,157.697174 1326.698364,156.274673 1322.121826,149.819199 
	C1314.181641,138.619232 1306.371948,127.326714 1298.510498,116.077202 
	C1309.526001,107.623650 1317.093018,97.823288 1318.127075,84.240501 
	C1319.955200,60.223808 1306.539917,44.790775 1282.435425,44.128967 
	C1262.299683,43.576118 1242.134277,44.098392 1221.420532,44.065426 
	C1221.296143,44.374466 1221.171753,44.683506 1220.896240,45.919479 
	C1220.986572,51.949020 1221.076904,57.978561 1221.025879,64.917671 
	C1221.203979,69.014465 1221.382202,73.111267 1221.549194,78.118446 
	C1221.754883,88.748322 1221.960571,99.378197 1222.024048,110.922928 
	C1222.203369,115.351074 1222.382690,119.779221 1222.559326,124.976234 
	C1222.569580,126.256607 1222.579956,127.536980 1222.075073,129.417313 
	C1222.105469,131.275467 1222.135864,133.133636 1222.012451,135.908691 
	C1221.855103,140.206024 1221.697876,144.503357 1221.073486,149.404327 
	C1221.104858,150.933472 1221.136108,152.462616 1221.013672,154.858398 
	C1221.033325,156.909622 1221.052979,158.960846 1220.996460,161.660522 
M537.772766,198.938736 
	C537.772766,232.621155 537.772766,266.303558 537.772766,301.008881 
	C544.099060,301.008881 550.548157,301.008881 557.778320,301.225433 
	C567.855896,301.160339 577.933472,301.095245 588.862976,301.132172 
	C590.570923,301.014282 592.278809,300.896423 594.676208,300.874908 
	C595.787964,300.593781 596.899658,300.312653 598.851379,300.093933 
	C605.829468,298.109222 613.123291,296.850922 619.717896,293.984100 
	C632.310059,288.510071 637.280151,277.833832 636.822388,264.562988 
	C636.349915,250.866135 628.309998,243.236847 615.312439,239.606934 
	C617.559387,238.143433 619.552124,236.976212 621.405212,235.618317 
	C638.704773,222.940842 636.480652,196.039734 617.031128,187.135010 
	C610.983765,184.366257 604.026794,182.452682 597.421143,182.247940 
	C577.962769,181.644836 558.471802,182.094360 538.143066,182.071350 
	C538.081116,187.387314 538.019165,192.703293 537.772766,198.938736 
M919.038330,183.879974 
	C919.445312,222.622177 922.540405,261.350311 918.810608,301.014648 
	C926.092651,301.014648 932.544067,301.014648 939.776245,301.234344 
	C949.853149,301.162598 959.929993,301.090851 970.902283,301.118530 
	C981.272583,300.651276 991.391418,298.942230 1000.849854,294.476898 
	C1015.294495,287.657532 1021.778381,272.878265 1017.480896,257.441315 
	C1014.622986,247.175415 1006.739075,242.670929 997.217346,239.510040 
	C999.088745,238.304337 1000.638000,237.362274 1002.129333,236.336258 
	C1011.479248,229.903732 1015.413513,220.781631 1014.694397,209.712524 
	C1013.952576,198.292648 1007.770264,190.352875 997.267090,186.342163 
	C991.603516,184.179504 985.427979,182.368423 979.439941,182.225693 
	C959.629028,181.753479 939.798279,182.112137 919.459351,182.085632 
	C919.365906,182.379120 919.272522,182.672607 919.038330,183.879974 
M1151.999268,290.882477 
	C1151.970703,293.583710 1151.942017,296.284973 1151.834961,299.661865 
	C1152.227539,299.796661 1152.620117,299.931427 1153.932617,300.251862 
	C1163.620850,300.182648 1173.309204,300.113434 1183.873047,300.153320 
	C1183.926147,295.430511 1183.979248,290.707733 1184.201782,285.062408 
	C1184.201782,269.090942 1184.201782,253.119476 1184.201782,237.148010 
	C1184.585449,237.007263 1184.968994,236.866501 1185.352661,236.725754 
	C1186.188232,238.194916 1187.061646,239.644012 1187.853516,241.136353 
	C1198.106567,260.458130 1208.347900,279.786041 1218.868652,299.697998 
	C1219.250366,299.814697 1219.631958,299.931396 1220.930664,300.249176 
	C1233.513794,300.249176 1246.096924,300.249176 1258.674927,300.249176 
	C1258.674927,297.071899 1258.716553,294.439026 1258.668213,291.807831 
	C1258.415161,278.005798 1257.846802,264.202301 1257.937988,250.402908 
	C1258.084351,228.274490 1258.661743,206.148941 1259.282349,183.442261 
	C1258.203125,178.572632 1255.068726,182.555695 1252.072998,181.830750 
	C1243.478516,182.283783 1234.884033,182.736816 1226.403564,183.183838 
	C1226.403564,204.021210 1226.403564,224.496811 1226.403564,246.604126 
	C1224.655762,244.157791 1223.559204,242.940033 1222.816406,241.535248 
	C1213.838135,224.550537 1204.935547,207.525818 1195.949829,190.545135 
	C1194.440430,187.692993 1192.630005,185.000229 1190.509888,182.026367 
	C1190.509888,182.026367 1190.028320,182.138718 1189.098022,181.987946 
	C1177.058105,182.035629 1165.018066,182.083313 1152.353638,182.071198 
	C1152.196289,182.390335 1152.038940,182.709488 1151.691650,183.946350 
	C1151.849976,192.298935 1152.008423,200.651535 1152.020386,209.927795 
	C1152.200317,215.351059 1152.380249,220.774307 1152.582153,227.108932 
	C1152.777344,236.407425 1152.972656,245.705917 1153.022339,255.926086 
	C1153.070923,260.615875 1153.119629,265.305695 1153.015381,270.901672 
	C1152.865234,274.540405 1152.715088,278.179138 1152.052734,282.457672 
	C1152.089722,284.970306 1152.126831,287.482941 1151.999268,290.882477 
M885.000488,107.921570 
	C885.050842,117.282547 885.101196,126.643524 885.015503,136.663895 
	C885.064331,137.107590 885.113159,137.551285 885.013489,138.890335 
	C884.722168,146.267975 884.430847,153.645599 884.069214,161.645126 
	C884.389038,161.803925 884.708862,161.962723 885.940369,162.341751 
	C895.950989,162.271225 905.961609,162.200714 916.613342,162.183441 
	C916.714172,161.794846 916.815002,161.406250 917.040039,160.085388 
	C917.040039,139.768692 917.040039,119.451988 917.040039,97.892883 
	C918.408936,100.212563 919.337280,101.645432 920.129822,103.149887 
	C929.870361,121.639839 939.542480,140.166229 949.402710,158.592041 
	C950.255249,160.185181 952.292480,162.175491 953.821899,162.212250 
	C966.106018,162.507492 978.400330,162.377426 990.456299,162.377426 
	C990.456299,122.505310 990.456299,82.986244 990.456299,43.410484 
	C980.170410,44.026726 969.180237,44.685158 958.564880,45.321136 
	C958.564880,66.296768 958.564880,86.661598 958.564880,107.026436 
	C956.744202,106.070671 955.734741,104.730080 954.957275,103.266243 
	C944.930847,84.387520 934.958130,65.480240 924.882629,46.627876 
	C924.301514,45.540489 922.961731,44.122532 921.957947,44.108852 
	C909.359924,43.937199 896.758728,43.996281 884.162537,43.996281 
	C884.162537,48.718647 884.162537,52.861687 884.018127,57.794811 
	C884.062805,58.861595 884.107544,59.928375 883.999634,61.922318 
	C884.387939,74.949791 884.776184,87.977272 885.020081,101.851486 
	C885.064392,103.566017 885.108704,105.280548 885.000488,107.921570 
M871.913635,300.245178 
	C881.605042,300.182678 891.296387,300.120178 901.614319,300.117859 
	C901.723816,299.749481 901.833252,299.381073 902.050598,298.113525 
	C902.015625,296.951019 902.030823,295.784515 901.938416,294.626587 
	C899.573853,265.003326 897.213745,235.379654 894.813660,205.759262 
	C894.175598,197.884689 893.408752,190.020554 892.699524,182.134277 
	C878.860657,182.134277 865.419922,182.134277 851.444275,182.066681 
	C851.323059,182.372726 851.201843,182.678772 850.776733,183.705017 
	C846.023438,203.355637 840.979980,222.920395 834.164917,242.016235 
	C832.940918,240.271973 832.429382,238.708694 832.048828,237.114182 
	C827.747681,219.091934 823.466553,201.064896 819.135681,182.426941 
	C818.765442,182.327026 818.395142,182.227097 817.093689,181.987396 
	C804.055908,182.034531 791.018188,182.081680 777.443298,182.058701 
	C777.333435,182.365601 777.223511,182.672501 776.921875,183.841614 
	C774.643860,206.498886 772.293640,229.149231 770.112549,251.815826 
	C768.600647,267.527832 767.321899,283.262207 765.836060,299.653473 
	C766.227905,299.784424 766.619812,299.915375 767.928406,300.250061 
	C776.948975,300.182465 785.969543,300.114868 795.589539,300.098297 
	C795.694824,299.738983 795.800110,299.379669 796.077209,298.114868 
	C797.494446,277.008575 797.291260,255.745392 800.908997,234.852203 
	C801.454834,234.858078 802.000671,234.863953 802.546509,234.869827 
	C807.747925,252.588867 812.949402,270.307892 818.114502,288.540070 
	C818.401367,288.653473 818.688232,288.766907 819.892944,289.100128 
	C828.265076,289.049927 836.637268,288.999725 845.604675,289.000549 
	C845.759644,288.661163 845.914551,288.321747 846.593384,287.482056 
	C852.984192,269.909790 858.470520,251.992798 865.401367,234.626358 
	C866.127319,234.758850 866.853333,234.891342 867.579346,235.023849 
	C868.444519,256.359589 869.309692,277.695312 870.105164,299.594666 
	C870.404175,299.733032 870.703186,299.871429 871.913635,300.245178 
M1476.060059,213.649765 
	C1470.596558,229.450165 1469.724121,245.625687 1473.123779,261.870544 
	C1477.221680,281.452057 1488.136108,295.731140 1508.263184,300.328949 
	C1517.163818,302.362213 1526.844482,302.695679 1535.956177,301.743317 
	C1556.583496,299.587219 1571.703125,288.842621 1579.236816,269.074554 
	C1586.214966,250.764633 1586.578125,231.930328 1580.873169,213.275101 
	C1576.022705,197.414413 1565.328857,186.499985 1549.166748,182.327911 
	C1541.565552,180.365723 1533.344360,179.833496 1525.458984,180.126907 
	C1502.575439,180.978348 1485.489868,191.165466 1476.060059,213.649765 
M657.499939,199.050842 
	C654.636108,204.250244 651.043091,209.185272 649.044128,214.698257 
	C642.861450,231.749023 642.662537,249.296753 647.438293,266.656555 
	C652.234741,284.091339 663.281677,296.367737 681.251526,300.305450 
	C690.174805,302.260742 699.809509,302.679718 708.914124,301.751251 
	C729.521484,299.649872 744.673767,288.958130 752.246704,269.248871 
	C759.195435,251.164062 759.664551,232.549423 754.126465,214.006714 
	C748.890930,196.477081 737.068604,185.303391 719.172485,181.552109 
	C711.789124,180.004456 703.938782,179.715576 696.380798,180.173492 
	C681.277222,181.088623 667.948975,186.485260 657.499939,199.050842 
M1039.879517,198.398636 
	C1037.226074,202.773758 1033.901489,206.881836 1032.036133,211.570480 
	C1024.182617,231.309799 1023.855347,251.437759 1030.907349,271.437714 
	C1036.387573,286.979889 1047.569214,297.167114 1063.609985,300.513031 
	C1072.405396,302.347565 1081.862671,302.694672 1090.814941,301.751648 
	C1111.425171,299.580566 1126.530884,288.857880 1134.074707,269.144745 
	C1141.134399,250.696915 1141.460693,231.655273 1135.609985,212.932022 
	C1130.443604,196.398575 1119.081299,185.062698 1101.768677,181.939117 
	C1092.135132,180.201019 1081.945679,180.310333 1072.131836,181.114349 
	C1059.471436,182.151611 1048.750366,188.123459 1039.879517,198.398636 
M1032.172852,157.399902 
	C1050.255615,166.306107 1069.111938,165.653503 1088.159790,161.707352 
	C1089.326050,161.465729 1090.759399,159.389297 1090.937134,158.019699 
	C1091.921631,150.436340 1092.549072,142.806839 1093.311646,135.194427 
	C1093.719971,131.119553 1092.354614,130.054428 1088.242554,131.019714 
	C1084.048950,132.004105 1079.844849,133.016190 1075.591675,133.661713 
	C1059.186646,136.151581 1048.938599,130.343262 1046.556396,115.595009 
	C1045.070557,106.396065 1045.314941,96.699234 1046.282104,87.381493 
	C1047.332153,77.265770 1054.340454,71.603897 1064.525391,72.201447 
	C1071.686768,72.621605 1078.847290,74.497955 1085.797729,76.467361 
	C1089.297974,77.459137 1090.583740,77.089622 1091.297852,73.554604 
	C1093.064453,64.810600 1095.061401,56.113155 1097.009888,47.195412 
	C1095.936523,46.750805 1095.060059,46.297913 1094.131714,46.016796 
	C1080.882202,42.004795 1067.386108,40.790386 1053.708374,43.030216 
	C1032.118042,46.565819 1016.646790,57.834255 1009.794434,79.195961 
	C1004.245605,96.493896 1004.561829,113.965401 1010.167419,131.163162 
	C1013.841003,142.433380 1020.881836,151.322067 1032.172852,157.399902 
z"/>
<path fill="#093F8D" opacity="1.000000" stroke="none" 
	d="
M402.969025,5.159812 
	C438.301636,6.924123 471.915100,35.445797 481.039276,71.219994 
	C485.204956,87.552818 484.929291,103.746414 480.075104,119.976547 
	C495.005249,130.271957 506.587006,143.266159 514.491577,159.475311 
	C542.833618,217.593628 506.933777,288.277740 443.466003,299.041016 
	C436.774872,300.175781 429.918427,300.805786 423.134247,300.842194 
	C389.657349,301.021973 356.178802,300.985504 322.701141,300.903900 
	C291.533020,300.827942 266.799408,278.743347 263.345398,247.060364 
	C263.789886,245.353729 263.987946,244.370544 263.988190,243.387344 
	C264.002899,183.020660 264.007141,122.653961 263.966217,62.287300 
	C263.965240,60.868607 263.440216,59.450264 263.159637,58.031754 
	C264.281891,34.013187 284.887268,10.797232 309.355011,5.988157 
	C310.981232,5.668527 312.612610,5.375053 314.958374,5.382828 
	C316.324799,5.797461 316.974426,5.986825 317.624146,5.987198 
	C344.824097,6.002844 372.024048,6.012744 399.223907,5.966698 
	C400.472717,5.964583 401.720673,5.440690 402.969025,5.159812 
M318.568481,260.546692 
	C319.373688,260.696930 320.178802,260.978088 320.984100,260.978607 
	C356.766510,261.000916 392.548950,261.008545 428.331299,260.956299 
	C429.555634,260.954529 430.779083,260.322205 432.692139,259.619385 
	C435.454834,259.055725 438.289551,258.724030 440.968933,257.892029 
	C464.190063,250.681442 478.766479,235.102188 482.587616,211.193207 
	C486.212341,188.513489 477.681000,169.892532 459.369202,155.386536 
	C438.734161,176.157440 412.275513,185.338547 385.461914,193.862686 
	C370.948212,198.476669 356.381470,202.955948 342.027710,208.030716 
	C331.071991,211.904099 320.638947,216.943344 311.706573,224.725922 
	C300.308075,234.657227 299.836670,253.840317 318.568481,260.546692 
M423.821686,132.374405 
	C425.216095,131.188431 426.682129,130.076355 427.993958,128.805161 
	C442.584045,114.666695 446.740479,97.488785 440.443848,78.601517 
	C434.068542,59.478302 420.128601,47.315002 399.807129,46.198692 
	C374.893921,44.830151 349.860016,45.624592 324.878113,45.553181 
	C310.384857,45.511753 303.595947,52.390732 303.590912,66.986229 
	C303.578491,102.967094 303.586609,138.947952 303.586456,174.928818 
	C303.586426,176.542603 303.586456,178.156387 303.586456,179.735687 
	C304.410706,179.797989 304.810486,179.959366 305.044983,179.827286 
	C325.160370,168.495865 347.320557,162.682419 369.162872,155.997528 
	C388.025482,150.224564 406.938232,144.539505 423.821686,132.374405 
z"/>
<path fill="#014592" opacity="1.000000" stroke="none" 
	d="
M218.916321,258.681396 
	C218.942413,248.441177 218.968491,238.200974 219.523865,227.490662 
	C233.652542,227.022430 247.251938,227.024307 260.907379,227.487045 
	C261.049500,233.625504 261.135529,239.303116 261.221558,244.980728 
	C261.009247,252.095245 261.709167,259.381073 260.411560,266.291779 
	C256.689819,286.112518 241.968994,298.913422 221.052979,300.642334 
	C197.816589,300.218781 175.306122,300.121704 152.795563,300.070404 
	C152.209320,300.069061 151.621933,300.567047 151.035065,300.832123 
	C122.762383,300.178375 96.788567,292.010834 73.425812,276.178558 
	C35.824512,250.697220 13.710074,215.180573 8.235543,170.177200 
	C-1.149387,93.028389 51.499855,21.482327 127.381546,7.176542 
	C132.598740,6.192957 137.914886,5.734215 143.925262,5.360235 
	C146.481262,5.792984 148.296967,5.986609 150.112747,5.987525 
	C185.049500,6.005140 219.986313,6.021972 254.922943,5.956176 
	C257.563263,5.951204 259.850159,6.025629 260.837341,8.974223 
	C259.519073,29.481087 241.010422,46.795021 219.876068,46.963696 
	C198.730530,47.132462 177.582611,46.992561 156.435760,47.007713 
	C104.327942,47.045048 61.427261,82.283165 51.269001,133.377075 
	C39.938560,190.366791 80.403587,248.410889 137.491364,257.033264 
	C140.772812,257.528900 144.077362,257.871704 147.940979,258.834595 
	C149.292221,259.586426 150.073364,259.965240 150.855103,259.966492 
	C172.397232,260.000702 193.939499,260.016663 215.481415,259.942596 
	C216.627808,259.938660 217.771423,259.120514 218.916321,258.681396 
z"/>
<path fill="#093E8D" opacity="1.000000" stroke="none" 
	d="
M149.028641,215.847305 
	C122.891418,214.618546 97.551048,191.626740 93.009003,165.019608 
	C86.957474,129.569885 107.964668,98.184242 143.042725,90.552994 
	C147.556808,89.570953 152.286163,89.242355 156.920319,89.207230 
	C176.082748,89.061928 195.246918,89.129997 214.410431,89.149719 
	C239.157944,89.175179 256.451813,103.709709 260.639282,128.955017 
	C260.207123,131.485306 260.013702,133.301361 260.012146,135.117599 
	C259.989319,162.074387 259.991852,189.031189 259.520508,215.996918 
	C245.605316,216.041550 232.158005,216.077255 218.710709,216.112961 
	C218.710709,216.112961 218.330307,216.181732 217.868408,215.788620 
	C216.764114,215.265823 216.121872,215.023483 215.479355,215.022797 
	C194.411301,215.000473 173.343201,214.988785 152.275238,215.034912 
	C151.192459,215.037277 150.110809,215.564468 149.028641,215.847305 
M219.521667,173.441620 
	C219.628738,160.025833 219.743164,146.610092 219.806778,133.194107 
	C219.808655,132.798553 219.275620,132.400452 218.072815,131.809799 
	C197.073547,131.803040 176.072327,131.619217 155.075684,131.850708 
	C140.669235,132.009537 130.964981,145.591049 135.218445,159.208496 
	C137.654083,167.006180 143.517975,171.298492 151.354919,174.413605 
	C152.894119,174.325592 154.433319,174.237579 156.901733,173.993118 
	C177.556519,173.984131 198.211304,173.975143 219.521667,173.441620 
z"/>
<path fill="#323430" opacity="1.000000" stroke="none" 
	d="
M845.009399,288.949524 
	C836.637268,288.999725 828.265076,289.049927 819.344849,288.806091 
	C818.633240,288.281342 818.417969,288.119629 818.150757,288.026947 
	C812.949402,270.307892 807.747925,252.588867 802.546509,234.869827 
	C802.000671,234.863953 801.454834,234.858078 800.908997,234.852203 
	C797.291260,255.745392 797.494446,277.008575 795.775391,298.673035 
	C795.223083,299.450348 795.061951,299.722351 794.990112,300.047241 
	C785.969543,300.114868 776.948975,300.182465 767.362793,299.907715 
	C766.511169,299.372437 766.225037,299.179535 765.938965,298.986603 
	C767.321899,283.262207 768.600647,267.527832 770.112549,251.815826 
	C772.293640,229.149231 774.643860,206.498886 777.212646,183.327103 
	C777.746704,182.643417 777.905640,182.415497 777.980408,182.128815 
	C791.018188,182.081680 804.055908,182.034531 817.691040,182.275238 
	C818.585693,182.721771 818.882874,182.880463 819.180115,183.039154 
	C823.466553,201.064896 827.747681,219.091934 832.048828,237.114182 
	C832.429382,238.708694 832.940918,240.271973 834.164917,242.016235 
	C840.979980,222.920395 846.023438,203.355637 851.127869,183.262299 
	C851.728943,182.651871 851.895691,182.423447 851.979248,182.134277 
	C865.419922,182.134277 878.860657,182.134277 892.699524,182.134277 
	C893.408752,190.020554 894.175598,197.884689 894.813660,205.759262 
	C897.213745,235.379654 899.573853,265.003326 901.938416,294.626587 
	C902.030823,295.784515 902.015625,296.951019 901.771545,298.667114 
	C901.228333,299.441864 901.060120,299.720856 900.987793,300.057678 
	C891.296387,300.120178 881.605042,300.182678 871.370667,299.924927 
	C870.675476,299.339050 870.457886,299.147827 870.174927,299.031036 
	C869.309692,277.695312 868.444519,256.359589 867.579346,235.023849 
	C866.853333,234.891342 866.127319,234.758850 865.401367,234.626358 
	C858.470520,251.992798 852.984192,269.909790 846.097839,287.825043 
	C845.404663,288.428528 845.207031,288.689026 845.009399,288.949524 
z"/>
<path fill="#323430" opacity="1.000000" stroke="none" 
	d="
M915.972168,162.130188 
	C905.961609,162.200714 895.950989,162.271225 885.396179,162.003433 
	C884.699768,161.356598 884.462280,161.142639 884.139526,161.023239 
	C884.430847,153.645599 884.722168,146.267975 885.369446,138.400269 
	C886.019165,137.590637 886.312927,137.271088 886.606689,136.951538 
	C886.121643,136.635864 885.636597,136.320175 885.151550,136.004486 
	C885.101196,126.643524 885.050842,117.282547 885.429443,107.376129 
	C887.339233,104.684746 888.282349,102.602852 885.164429,101.004745 
	C884.776184,87.977272 884.387939,74.949791 884.406616,61.392120 
	C884.596619,59.576195 884.379578,58.290462 884.162537,57.004730 
	C884.162537,52.861687 884.162537,48.718647 884.162537,43.996281 
	C896.758728,43.996281 909.359924,43.937199 921.957947,44.108852 
	C922.961731,44.122532 924.301514,45.540489 924.882629,46.627876 
	C934.958130,65.480240 944.930847,84.387520 954.957275,103.266243 
	C955.734741,104.730080 956.744202,106.070671 958.564880,107.026436 
	C958.564880,86.661598 958.564880,66.296768 958.564880,45.321136 
	C969.180237,44.685158 980.170410,44.026726 990.456299,43.410484 
	C990.456299,82.986244 990.456299,122.505310 990.456299,162.377426 
	C978.400330,162.377426 966.106018,162.507492 953.821899,162.212250 
	C952.292480,162.175491 950.255249,160.185181 949.402710,158.592041 
	C939.542480,140.166229 929.870361,121.639839 920.129822,103.149887 
	C919.337280,101.645432 918.408936,100.212563 917.040039,97.892883 
	C917.040039,119.451988 917.040039,139.768692 916.753662,160.670654 
	C916.302307,161.547333 916.137268,161.838745 915.972168,162.130188 
z"/>
<path fill="#323430" opacity="1.000000" stroke="none" 
	d="
M1190.958740,182.233795 
	C1192.630005,185.000229 1194.440430,187.692993 1195.949829,190.545135 
	C1204.935547,207.525818 1213.838135,224.550537 1222.816406,241.535248 
	C1223.559204,242.940033 1224.655762,244.157791 1226.403564,246.604126 
	C1226.403564,224.496811 1226.403564,204.021210 1226.403564,183.183838 
	C1234.884033,182.736816 1243.478516,182.283783 1252.763916,182.184052 
	C1255.322144,183.032303 1257.189453,183.527237 1259.056885,184.022171 
	C1258.661743,206.148941 1258.084351,228.274490 1257.937988,250.402908 
	C1257.846802,264.202301 1258.415161,278.005798 1258.668213,291.807831 
	C1258.716553,294.439026 1258.674927,297.071899 1258.674927,300.249176 
	C1246.096924,300.249176 1233.513794,300.249176 1220.312012,299.896454 
	C1219.326172,299.399963 1218.959229,299.256195 1218.592041,299.112427 
	C1208.347900,279.786041 1198.106567,260.458130 1187.853516,241.136353 
	C1187.061646,239.644012 1186.188232,238.194916 1185.352661,236.725754 
	C1184.968994,236.866501 1184.585449,237.007263 1184.201782,237.148010 
	C1184.201782,253.119476 1184.201782,269.090942 1183.812988,285.810364 
	C1183.281860,291.053589 1183.139648,295.548920 1182.997437,300.044220 
	C1173.309204,300.113434 1163.620850,300.182648 1153.359131,299.916077 
	C1152.494995,299.382263 1152.204102,299.184235 1151.913330,298.986206 
	C1151.942017,296.284973 1151.970703,293.583710 1152.453613,290.340881 
	C1152.793701,287.138824 1152.679321,284.478333 1152.564941,281.817871 
	C1152.715088,278.179138 1152.865234,274.540405 1153.473633,270.342560 
	C1154.287964,266.161682 1154.833740,262.543335 1154.898438,258.916412 
	C1154.921631,257.623108 1153.778564,256.308990 1153.167847,255.004410 
	C1152.972656,245.705917 1152.777344,236.407425 1152.935791,226.397308 
	C1153.498291,220.622467 1153.756592,215.560043 1153.837158,210.494781 
	C1153.844971,210.006882 1152.749878,209.501434 1152.166748,209.004120 
	C1152.008423,200.651535 1151.849976,192.298935 1152.015381,183.398102 
	C1152.649048,182.696503 1152.862061,182.456894 1152.978149,182.130997 
	C1165.018066,182.083313 1177.058105,182.035629 1189.636230,182.213623 
	C1190.174438,182.439301 1190.601929,182.560883 1190.601929,182.560883 
	C1190.601929,182.560883 1190.958740,182.233795 1190.958740,182.233795 
z"/>
<path fill="#333531" opacity="1.000000" stroke="none" 
	d="
M919.975159,182.151947 
	C939.798279,182.112137 959.629028,181.753479 979.439941,182.225693 
	C985.427979,182.368423 991.603516,184.179504 997.267090,186.342163 
	C1007.770264,190.352875 1013.952576,198.292648 1014.694397,209.712524 
	C1015.413513,220.781631 1011.479248,229.903732 1002.129333,236.336258 
	C1000.638000,237.362274 999.088745,238.304337 997.217346,239.510040 
	C1006.739075,242.670929 1014.622986,247.175415 1017.480896,257.441315 
	C1021.778381,272.878265 1015.294495,287.657532 1000.849854,294.476898 
	C991.391418,298.942230 981.272583,300.651276 970.154663,300.778442 
	C961.651733,300.299133 953.896362,300.073853 946.140991,300.072205 
	C943.759216,300.071716 941.377258,300.683289 938.995422,301.014648 
	C932.544067,301.014648 926.092651,301.014648 918.810608,301.014648 
	C922.540405,261.350311 919.445312,222.622177 919.283447,183.332703 
	C919.750000,182.625397 919.898865,182.414246 919.975159,182.151947 
M961.545593,277.205933 
	C964.850342,277.089813 968.233948,277.386047 971.443359,276.771820 
	C978.130859,275.492004 981.695862,270.540955 981.269958,263.915527 
	C980.936340,258.724670 976.061951,253.969070 970.260498,253.697189 
	C964.684448,253.435898 959.086609,253.640701 953.608643,253.640701 
	C953.608643,261.885742 953.608643,269.259521 953.608643,276.788147 
	C956.297607,276.920837 958.439270,277.026520 961.545593,277.205933 
M954.029297,222.435013 
	C954.029297,224.905960 954.029297,227.376923 954.029297,230.136734 
	C958.272034,230.401138 962.228027,230.889435 966.176636,230.835815 
	C971.785522,230.759705 976.392639,226.178009 977.077209,220.462555 
	C977.985168,212.881393 975.883545,208.788971 969.590576,207.457840 
	C964.824280,206.449631 959.872803,206.316757 954.045959,205.691589 
	C954.045959,211.541595 954.045959,216.500214 954.029297,222.435013 
z"/>
<path fill="#333531" opacity="1.000000" stroke="none" 
	d="
M556.997253,301.008881 
	C550.548157,301.008881 544.099060,301.008881 537.772766,301.008881 
	C537.772766,266.303558 537.772766,232.621155 538.171387,198.192459 
	C538.711243,192.341415 538.852417,187.236649 538.993591,182.131882 
	C558.471802,182.094360 577.962769,181.644836 597.421143,182.247940 
	C604.026794,182.452682 610.983765,184.366257 617.031128,187.135010 
	C636.480652,196.039734 638.704773,222.940842 621.405212,235.618317 
	C619.552124,236.976212 617.559387,238.143433 615.312439,239.606934 
	C628.309998,243.236847 636.349915,250.866135 636.822388,264.562988 
	C637.280151,277.833832 632.310059,288.510071 619.717896,293.984100 
	C613.123291,296.850922 605.829468,298.109222 598.215332,299.806641 
	C596.381714,299.939056 595.184265,300.358795 593.986755,300.778564 
	C592.278809,300.896423 590.570923,301.014282 588.138428,300.788666 
	C579.658142,300.303741 571.902588,300.076508 564.146851,300.072205 
	C561.763855,300.070892 559.380432,300.679565 556.997253,301.008881 
M586.269043,253.694046 
	C581.487183,253.694046 576.705261,253.694046 571.763550,253.694046 
	C571.763550,261.736603 571.763550,269.113495 571.763550,277.093109 
	C577.380798,277.093109 582.501221,277.447418 587.553223,277.010681 
	C595.269165,276.343750 599.925537,271.296936 599.726685,264.566864 
	C599.546997,258.487183 594.911072,254.452713 586.269043,253.694046 
M592.987427,226.379761 
	C598.038574,217.607025 595.960632,209.357239 587.854248,207.469406 
	C583.107483,206.363983 578.116638,206.306717 572.604858,205.709625 
	C572.604858,214.304916 572.604858,222.060928 572.604858,230.075043 
	C579.280029,230.343842 586.518799,233.054749 592.987427,226.379761 
z"/>
<path fill="#333531" opacity="1.000000" stroke="none" 
	d="
M1476.215576,213.292969 
	C1485.489868,191.165466 1502.575439,180.978348 1525.458984,180.126907 
	C1533.344360,179.833496 1541.565552,180.365723 1549.166748,182.327911 
	C1565.328857,186.499985 1576.022705,197.414413 1580.873169,213.275101 
	C1586.578125,231.930328 1586.214966,250.764633 1579.236816,269.074554 
	C1571.703125,288.842621 1556.583496,299.587219 1535.956177,301.743317 
	C1526.844482,302.695679 1517.163818,302.362213 1508.263184,300.328949 
	C1488.136108,295.731140 1477.221680,281.452057 1473.123779,261.870544 
	C1469.724121,245.625687 1470.596558,229.450165 1476.215576,213.292969 
M1510.734741,256.531494 
	C1511.549438,260.070801 1511.943970,263.776917 1513.268433,267.113831 
	C1515.811279,273.519867 1521.198853,275.913116 1530.269287,275.350555 
	C1538.763184,274.823730 1542.499146,272.550842 1544.098633,265.131531 
	C1547.360474,250.000122 1547.184326,234.715271 1543.409058,219.708267 
	C1541.329956,211.442902 1535.156982,208.359833 1525.021240,209.096375 
	C1516.553711,209.711685 1511.833862,213.306946 1511.179199,221.851578 
	C1510.319824,233.069382 1510.709961,244.382919 1510.734741,256.531494 
z"/>
<path fill="#323430" opacity="1.000000" stroke="none" 
	d="
M1221.982056,44.144554 
	C1242.134277,44.098392 1262.299683,43.576118 1282.435425,44.128967 
	C1306.539917,44.790775 1319.955200,60.223808 1318.127075,84.240501 
	C1317.093018,97.823288 1309.526001,107.623650 1298.510498,116.077202 
	C1306.371948,127.326714 1314.181641,138.619232 1322.121826,149.819199 
	C1326.698364,156.274673 1326.474976,157.697174 1318.931885,159.347000 
	C1310.031738,161.293625 1300.971802,162.498947 1292.032715,164.283768 
	C1287.405518,165.207672 1284.786011,163.246674 1282.996826,159.323944 
	C1278.872314,150.281464 1274.427246,141.370300 1270.704590,132.166351 
	C1269.070068,128.125320 1267.127075,126.301582 1262.781006,127.022751 
	C1260.851929,127.342834 1258.825562,127.076759 1257.294922,127.076759 
	C1257.294922,137.896027 1257.294922,148.466583 1256.927002,159.672333 
	C1256.368652,160.911423 1256.177979,161.515335 1255.987305,162.119232 
	C1244.973022,162.193924 1233.958740,162.268616 1222.394043,161.999634 
	C1221.586670,161.441315 1221.329590,161.226669 1221.072510,161.012054 
	C1221.052979,158.960846 1221.033325,156.909622 1221.448853,154.339371 
	C1221.769531,152.147125 1221.655029,150.473907 1221.540527,148.800690 
	C1221.697876,144.503357 1221.855103,140.206024 1222.452393,135.360245 
	C1222.791626,132.813644 1222.690918,130.815506 1222.590332,128.817352 
	C1222.579956,127.536980 1222.569580,126.256607 1222.923340,124.335640 
	C1223.795044,119.060524 1225.801514,114.303246 1222.166260,110.008072 
	C1221.960571,99.378197 1221.754883,88.748322 1221.916260,77.408798 
	C1222.751343,72.394936 1224.790527,67.952560 1221.167236,64.008102 
	C1221.076904,57.978561 1220.986572,51.949020 1221.172974,45.370651 
	C1221.704590,44.656956 1221.881958,44.431198 1221.982056,44.144554 
M1279.818481,81.965256 
	C1277.343140,70.945602 1270.229980,67.296478 1257.009888,70.614037 
	C1257.009888,75.468269 1257.009766,80.441620 1257.009766,85.414970 
	C1257.009766,90.329926 1257.009888,95.244873 1257.009888,100.426109 
	C1260.045898,100.617615 1262.680664,100.853226 1265.320312,100.937096 
	C1272.741943,101.172874 1277.395752,97.594978 1279.041992,90.207596 
	C1279.578247,87.801643 1279.612305,85.283798 1279.818481,81.965256 
z"/>
<path fill="#323430" opacity="1.000000" stroke="none" 
	d="
M657.736572,198.781555 
	C667.948975,186.485260 681.277222,181.088623 696.380798,180.173492 
	C703.938782,179.715576 711.789124,180.004456 719.172485,181.552109 
	C737.068604,185.303391 748.890930,196.477081 754.126465,214.006714 
	C759.664551,232.549423 759.195435,251.164062 752.246704,269.248871 
	C744.673767,288.958130 729.521484,299.649872 708.914124,301.751251 
	C699.809509,302.679718 690.174805,302.260742 681.251526,300.305450 
	C663.281677,296.367737 652.234741,284.091339 647.438293,266.656555 
	C642.662537,249.296753 642.861450,231.749023 649.044128,214.698257 
	C651.043091,209.185272 654.636108,204.250244 657.736572,198.781555 
M682.992126,233.582108 
	C683.683472,243.661942 683.689209,253.851059 685.273315,263.788605 
	C686.654175,272.451294 692.374512,275.647003 702.284973,275.412262 
	C711.606018,275.191467 716.348145,272.065186 717.692139,263.801605 
	C719.972046,249.782974 720.119263,235.643494 717.025696,221.701965 
	C714.871216,211.992661 709.475098,208.549301 698.699036,209.067032 
	C689.416382,209.513016 685.461365,213.240982 683.929810,223.211517 
	C683.452393,226.319351 683.300781,229.477234 682.992126,233.582108 
z"/>
<path fill="#323430" opacity="1.000000" stroke="none" 
	d="
M1040.098633,198.117249 
	C1048.750366,188.123459 1059.471436,182.151611 1072.131836,181.114349 
	C1081.945679,180.310333 1092.135132,180.201019 1101.768677,181.939117 
	C1119.081299,185.062698 1130.443604,196.398575 1135.609985,212.932022 
	C1141.460693,231.655273 1141.134399,250.696915 1134.074707,269.144745 
	C1126.530884,288.857880 1111.425171,299.580566 1090.814941,301.751648 
	C1081.862671,302.694672 1072.405396,302.347565 1063.609985,300.513031 
	C1047.569214,297.167114 1036.387573,286.979889 1030.907349,271.437714 
	C1023.855347,251.437759 1024.182617,231.309799 1032.036133,211.570480 
	C1033.901489,206.881836 1037.226074,202.773758 1040.098633,198.117249 
M1065.721558,257.665894 
	C1067.562744,272.208649 1073.300415,276.667084 1087.772705,275.113525 
	C1093.602661,274.487701 1097.614258,271.549530 1098.830444,265.990509 
	C1102.251587,250.351425 1102.252075,234.603348 1098.011108,219.137482 
	C1095.838501,211.214127 1089.719238,208.329132 1079.749878,209.101440 
	C1071.441040,209.745117 1066.820557,213.107925 1066.161499,221.506134 
	C1065.242676,233.214859 1065.679321,245.029953 1065.721558,257.665894 
z"/>
<path fill="#323430" opacity="1.000000" stroke="none" 
	d="
M1444.982056,162.093155 
	C1434.299316,162.175232 1423.616699,162.257309 1412.330078,161.944824 
	C1411.381226,161.320663 1411.036377,161.091049 1410.691528,160.861450 
	C1416.884644,140.059982 1423.033447,119.245255 1429.284668,98.461266 
	C1434.391479,81.482132 1439.708862,64.565750 1444.706299,47.554981 
	C1445.521118,44.781628 1446.585571,43.897713 1449.434692,43.929482 
	C1462.754395,44.078007 1476.076782,43.995403 1490.035034,43.995403 
	C1500.658081,82.713768 1511.294434,121.480377 1521.693726,160.754547 
	C1521.295532,161.550873 1521.134277,161.839615 1520.972900,162.128342 
	C1509.219116,162.128326 1497.465332,162.128326 1485.341675,162.128326 
	C1484.197021,155.692566 1483.047241,149.227448 1481.839478,142.437012 
	C1471.037109,142.437012 1460.331543,142.437012 1449.147461,142.437012 
	C1448.092407,148.580338 1447.092529,154.401382 1445.775757,160.744019 
	C1445.221924,161.496597 1445.063110,161.772446 1444.982056,162.093155 
M1467.462524,76.990768 
	C1466.660034,78.247986 1465.527832,79.406586 1465.116699,80.780861 
	C1463.885498,84.898338 1462.965454,89.107811 1461.870361,93.267281 
	C1459.858765,100.907593 1457.808838,108.537827 1455.515259,117.146721 
	C1462.888672,116.735313 1469.366577,116.373878 1476.528687,115.974274 
	C1473.623657,102.538864 1470.901978,89.951553 1467.462524,76.990768 
z"/>
<path fill="#323430" opacity="1.000000" stroke="none" 
	d="
M1304.993164,300.033295 
	C1294.305176,300.105103 1283.617310,300.176910 1272.391479,299.940613 
	C1271.706909,299.358490 1271.490845,299.159821 1271.205566,299.036469 
	C1282.929321,260.199188 1294.653076,221.361908 1306.822388,182.521240 
	C1307.267944,182.517853 1307.707275,182.530029 1307.707275,182.530029 
	C1307.707275,182.530029 1307.978516,182.135437 1307.978516,182.135437 
	C1321.684937,182.086258 1335.391357,182.037079 1349.654297,182.254486 
	C1350.383301,182.754303 1350.609741,182.907990 1350.890259,182.982162 
	C1357.251953,205.937698 1363.629639,228.888794 1369.969849,251.850235 
	C1374.240479,267.316376 1378.458008,282.797150 1382.454346,298.676636 
	C1381.804688,299.395355 1381.399658,299.708771 1380.994751,300.022217 
	C1369.972046,300.098572 1358.949341,300.174896 1347.379150,299.923035 
	C1346.662964,299.297546 1346.413574,299.104401 1346.083496,299.015442 
	C1344.904419,292.883820 1343.725220,286.752197 1342.518555,280.477325 
	C1332.405151,280.477325 1322.348267,280.372162 1312.300659,280.627625 
	C1311.204468,280.655518 1309.487549,282.619598 1309.212280,283.928314 
	C1308.126709,289.088654 1307.501587,294.345856 1306.229492,299.578491 
	C1305.500000,299.737671 1305.246582,299.885498 1304.993164,300.033295 
M1326.390869,254.854004 
	C1329.882202,254.370911 1333.373657,253.887802 1337.130005,253.368042 
	C1334.309204,240.104111 1331.604492,227.386124 1328.899780,214.668137 
	C1328.229370,214.688766 1327.558960,214.709412 1326.888550,214.730042 
	C1323.455811,227.807159 1320.023071,240.884277 1316.359741,254.839752 
	C1320.205200,254.839752 1322.831787,254.839752 1326.390869,254.854004 
z"/>
<path fill="#323430" opacity="1.000000" stroke="none" 
	d="
M869.972778,162.130829 
	C858.620544,162.199539 847.268372,162.268265 835.373779,161.985245 
	C834.676636,161.345383 834.446716,161.142380 834.141663,161.024521 
	C833.000305,154.861115 831.859009,148.697708 830.694519,142.409363 
	C819.869568,142.409363 809.276428,142.409363 798.045959,142.409363 
	C797.311279,146.862762 796.622375,151.039062 795.518127,155.680389 
	C795.097717,156.775940 795.092651,157.406494 795.087585,158.037048 
	C795.069824,158.790726 795.052063,159.544403 794.743103,160.784760 
	C794.230164,161.489075 794.076721,161.747269 793.991638,162.046036 
	C783.300781,162.143433 772.609924,162.240845 761.445679,161.901505 
	C760.631714,160.969833 760.291199,160.474899 759.950684,159.979965 
	C764.605652,144.257416 769.212891,128.520554 773.927002,112.815765 
	C780.408508,91.222832 787.044067,69.675751 793.416077,48.050827 
	C794.323242,44.972176 795.490051,43.854408 798.803955,43.907944 
	C811.960938,44.120480 825.123352,43.995377 838.929077,43.995377 
	C849.559082,82.709450 860.206848,121.488121 870.642090,160.775055 
	C870.196838,161.522385 870.044556,161.804886 869.972778,162.130829 
M816.258118,116.919411 
	C819.118286,116.420563 821.978516,115.921707 825.259888,115.349403 
	C822.489380,102.303932 819.770081,89.499641 817.050720,76.695351 
	C816.381836,76.743057 815.712891,76.790771 815.043945,76.838478 
	C811.593628,89.953941 808.143311,103.069412 804.496887,116.930328 
	C808.739380,116.930328 812.032288,116.930328 816.258118,116.919411 
z"/>
<path fill="#323430" opacity="1.000000" stroke="none" 
	d="
M1170.863770,160.968842 
	C1169.892212,155.798294 1169.050171,150.597504 1167.855469,145.479034 
	C1167.567383,144.245270 1166.131958,142.360519 1165.189331,142.339539 
	C1154.978394,142.112381 1144.760254,142.197647 1134.492554,142.197647 
	C1133.461914,148.902557 1132.586426,154.598145 1131.207031,160.733917 
	C1130.459473,161.488480 1130.215942,161.802841 1129.972412,162.117203 
	C1119.291870,162.191971 1108.611450,162.266754 1097.463501,161.759674 
	C1096.939575,160.546890 1096.883057,159.915970 1096.826660,159.285065 
	C1100.532471,146.587814 1104.152588,133.864777 1107.962280,121.198753 
	C1115.498169,96.143707 1123.139160,71.120201 1130.737183,46.083836 
	C1130.923218,45.470703 1131.116211,44.859650 1131.337280,44.147018 
	C1146.048706,44.147018 1160.666382,44.147018 1175.653076,44.147018 
	C1186.174194,82.838402 1196.682617,121.482956 1206.945312,160.651581 
	C1206.458618,161.485733 1206.217773,161.795822 1205.976929,162.105927 
	C1194.966431,162.184402 1183.956055,162.262863 1172.367676,161.976349 
	C1171.481079,161.397171 1171.172485,161.182999 1170.863770,160.968842 
M1152.606445,76.972115 
	C1152.193848,77.222588 1151.499268,77.397995 1151.409790,77.734413 
	C1148.213379,89.746078 1145.059937,101.769287 1141.959106,113.805916 
	C1141.769165,114.543251 1142.056152,115.403404 1142.167847,116.781685 
	C1147.890625,116.781685 1153.508789,116.912781 1159.106323,116.633316 
	C1159.900513,116.593674 1161.400513,114.395180 1161.213989,113.470139 
	C1158.758789,101.298050 1156.059326,89.175224 1152.606445,76.972115 
z"/>
<path fill="#323430" opacity="1.000000" stroke="none" 
	d="
M693.093384,112.037865 
	C693.093384,126.845680 693.093384,141.653488 693.093384,156.633163 
	C672.440063,163.962646 651.753662,167.479660 630.304688,162.172501 
	C611.810669,157.596512 600.322510,145.664200 595.477966,127.515106 
	C591.548584,112.794556 591.694885,97.879692 595.628662,83.125870 
	C600.660522,64.253624 612.844543,51.873142 631.277954,46.121178 
	C651.878113,39.693130 672.554443,40.765560 693.729370,47.345528 
	C691.102661,58.279053 688.531189,68.982658 685.767334,80.487213 
	C683.527222,79.707687 681.529358,79.210258 679.706421,78.344490 
	C670.915527,74.169388 661.842834,71.116783 651.972046,71.303207 
	C639.697876,71.535004 633.822632,75.614746 632.561523,87.482262 
	C631.393860,98.470619 631.273315,109.815666 632.626953,120.764374 
	C634.315063,134.418625 647.064697,140.669571 660.330811,135.786026 
	C660.330811,131.623993 660.330811,127.477333 660.330811,123.330666 
	C660.330811,119.188759 660.330811,115.046844 660.330811,110.379349 
	C668.541443,109.862793 676.804749,109.342926 685.768188,109.176193 
	C688.676575,110.365501 690.885010,111.201683 693.093384,112.037865 
z"/>
<path fill="#323430" opacity="1.000000" stroke="none" 
	d="
M1031.844238,157.224686 
	C1020.881836,151.322067 1013.841003,142.433380 1010.167419,131.163162 
	C1004.561829,113.965401 1004.245605,96.493896 1009.794434,79.195961 
	C1016.646790,57.834255 1032.118042,46.565819 1053.708374,43.030216 
	C1067.386108,40.790386 1080.882202,42.004795 1094.131714,46.016796 
	C1095.060059,46.297913 1095.936523,46.750805 1097.009888,47.195412 
	C1095.061401,56.113155 1093.064453,64.810600 1091.297852,73.554604 
	C1090.583740,77.089622 1089.297974,77.459137 1085.797729,76.467361 
	C1078.847290,74.497955 1071.686768,72.621605 1064.525391,72.201447 
	C1054.340454,71.603897 1047.332153,77.265770 1046.282104,87.381493 
	C1045.314941,96.699234 1045.070557,106.396065 1046.556396,115.595009 
	C1048.938599,130.343262 1059.186646,136.151581 1075.591675,133.661713 
	C1079.844849,133.016190 1084.048950,132.004105 1088.242554,131.019714 
	C1092.354614,130.054428 1093.719971,131.119553 1093.311646,135.194427 
	C1092.549072,142.806839 1091.921631,150.436340 1090.937134,158.019699 
	C1090.759399,159.389297 1089.326050,161.465729 1088.159790,161.707352 
	C1069.111938,165.653503 1050.255615,166.306107 1031.844238,157.224686 
z"/>
<path fill="#323430" opacity="1.000000" stroke="none" 
	d="
M1381.978149,182.136215 
	C1410.351074,182.086624 1438.723999,182.037003 1467.694336,182.265839 
	C1468.546143,182.759018 1468.837524,182.893814 1469.165771,182.948685 
	C1469.685181,184.209213 1470.716187,185.501144 1470.641113,186.725113 
	C1470.152588,194.678192 1469.423340,202.616547 1468.768311,210.617126 
	C1460.115234,210.617126 1451.539307,210.617126 1442.962036,210.617126 
	C1442.962036,239.602249 1442.962036,268.858856 1442.703369,298.689209 
	C1442.219482,299.473907 1442.069580,299.729034 1441.994751,300.028381 
	C1430.970337,300.101898 1419.946045,300.175415 1408.444458,299.825623 
	C1407.602417,298.916168 1407.237549,298.429993 1406.872803,297.943848 
	C1407.162720,275.642822 1407.472900,253.342041 1407.730347,231.040665 
	C1407.808838,224.236984 1407.742432,217.431625 1407.742432,211.066864 
	C1399.310913,211.066864 1391.710327,210.857895 1384.128540,211.145676 
	C1379.621826,211.316742 1378.228394,209.702805 1378.681885,205.303894 
	C1379.415527,198.187790 1379.707642,191.026184 1380.625366,183.412811 
	C1381.369019,182.673279 1381.673584,182.404739 1381.978149,182.136215 
z"/>
<path fill="#333531" opacity="1.000000" stroke="none" 
	d="
M1403.971069,162.110550 
	C1381.957397,162.187439 1359.943848,162.264328 1337.383301,162.040054 
	C1336.552124,161.850128 1336.267822,161.961365 1335.983643,162.072571 
	C1335.838867,159.461182 1335.560547,156.848724 1335.581177,154.238632 
	C1335.611206,150.459396 1335.857544,146.681870 1336.453125,142.356827 
	C1336.776855,139.805908 1336.658936,137.801773 1336.541016,135.797653 
	C1336.552124,127.237320 1336.563110,118.676987 1336.936157,109.402657 
	C1337.528320,104.286888 1337.856689,99.886101 1337.900635,95.482483 
	C1337.908936,94.663818 1336.773804,93.833733 1336.166260,93.008911 
	C1335.969727,83.378242 1335.773193,73.747581 1335.936035,63.403732 
	C1336.530029,58.950630 1336.922607,55.209961 1336.904785,51.471268 
	C1336.899292,50.314400 1335.776855,49.162865 1335.165894,48.008884 
	C1335.111084,46.853378 1335.056274,45.697876 1334.976196,44.010166 
	C1346.548462,44.010166 1357.978882,43.907162 1369.399414,44.197113 
	C1370.358643,44.221466 1372.073120,46.897961 1372.051636,48.321396 
	C1371.692749,72.120178 1371.100830,95.915382 1370.594238,119.712097 
	C1370.509644,123.688583 1370.582275,127.668419 1370.582275,132.339050 
	C1377.953491,132.339050 1384.870728,132.339142 1391.788086,132.339005 
	C1395.117432,132.338959 1398.447021,132.322739 1401.776245,132.341827 
	C1406.990356,132.371719 1407.843628,133.396179 1407.416748,138.449554 
	C1406.800659,145.741943 1406.324951,153.046204 1405.327515,160.795959 
	C1404.567383,161.534515 1404.269287,161.822525 1403.971069,162.110550 
z"/>
<path fill="#333531" opacity="1.000000" stroke="none" 
	d="
M710.989258,44.158264 
	C722.785889,44.158264 734.582520,44.158264 746.072571,44.158264 
	C746.072571,82.923332 746.072571,121.503426 745.776123,160.665390 
	C745.310120,161.542526 745.140564,161.837814 744.970947,162.133087 
	C733.961060,162.202591 722.951111,162.272125 711.364197,161.971802 
	C710.479614,161.390579 710.172119,161.179230 709.864563,160.967880 
	C710.105225,138.238144 710.501404,115.508598 710.529785,92.778603 
	C710.547607,78.501770 710.013245,64.224251 710.116943,49.259766 
	C710.667969,47.101089 710.828613,45.629677 710.989258,44.158264 
z"/>
<path fill="#023167" opacity="1.000000" stroke="none" 
	d="
M218.799194,216.555862 
	C232.158005,216.077255 245.605316,216.041550 259.730530,215.995361 
	C260.408447,215.984894 260.827911,215.967102 260.909851,216.420959 
	C260.944946,220.258606 260.898132,223.642395 260.851318,227.026199 
	C247.251938,227.024307 233.652542,227.022430 219.593262,227.028931 
	C219.051483,223.691116 218.969574,220.344940 218.799194,216.555862 
z"/>
<path fill="#002D83" opacity="1.000000" stroke="none" 
	d="
M260.827911,215.967102 
	C260.827911,215.967102 260.408447,215.984894 260.198425,215.986450 
	C259.991852,189.031189 259.989319,162.074387 260.012146,135.117599 
	C260.013702,133.301361 260.207123,131.485306 260.576477,129.354691 
	C260.993469,129.754639 261.145233,130.469055 261.296997,131.183472 
	C261.866333,131.154358 262.435638,131.125259 263.004944,131.096146 
	C263.004944,107.048767 263.004944,83.001381 263.082275,58.492874 
	C263.440216,59.450264 263.965240,60.868607 263.966217,62.287300 
	C264.007141,122.653961 264.002899,183.020660 263.988190,243.387344 
	C263.987946,244.370544 263.789886,245.353729 263.416992,246.650452 
	C263.088928,246.536118 263.027985,246.108231 262.986969,244.895721 
	C263.003693,235.415405 263.025757,226.719559 262.979034,218.024078 
	C262.967743,215.923691 262.863129,215.924255 260.827911,215.967102 
z"/>
<path fill="#003589" opacity="1.000000" stroke="none" 
	d="
M260.917511,8.524567 
	C259.850159,6.025629 257.563263,5.951204 254.922943,5.956176 
	C219.986313,6.021972 185.049500,6.005140 150.112747,5.987525 
	C148.296967,5.986609 146.481262,5.792984 144.349518,5.424862 
	C168.162430,5.016006 192.291229,4.843575 216.420319,4.737542 
	C230.068497,4.677567 243.717453,4.772140 257.365326,4.685636 
	C259.886200,4.669658 261.686218,4.898601 260.917511,8.524567 
z"/>
<path fill="#002D83" opacity="1.000000" stroke="none" 
	d="
M402.507355,5.086197 
	C401.720673,5.440690 400.472717,5.964583 399.223907,5.966698 
	C372.024048,6.012744 344.824097,6.002844 317.624146,5.987198 
	C316.974426,5.986825 316.324799,5.797461 315.359100,5.433517 
	C344.043945,5.118052 373.044800,5.065315 402.507355,5.086197 
z"/>
<path fill="#003589" opacity="1.000000" stroke="none" 
	d="
M218.455795,258.735352 
	C217.771423,259.120514 216.627808,259.938660 215.481415,259.942596 
	C193.939499,260.016663 172.397232,260.000702 150.855103,259.966492 
	C150.073364,259.965240 149.292221,259.586426 148.297058,259.015869 
	C171.387283,258.695190 194.691284,258.742249 218.455795,258.735352 
z"/>
<path fill="#002D83" opacity="1.000000" stroke="none" 
	d="
M151.496536,300.903809 
	C151.621933,300.567047 152.209320,300.069061 152.795563,300.070404 
	C175.306122,300.121704 197.816589,300.218781 220.643265,300.572449 
	C197.958984,300.881897 174.958496,300.928680 151.496536,300.903809 
z"/>
<path fill="#002D83" opacity="1.000000" stroke="none" 
	d="
M149.490387,215.922424 
	C150.110809,215.564468 151.192459,215.037277 152.275238,215.034912 
	C173.343201,214.988785 194.411301,215.000473 215.479355,215.022797 
	C216.121872,215.023483 216.764114,215.265823 217.701935,215.690399 
	C195.315628,215.989380 172.633881,215.993469 149.490387,215.922424 
z"/>
<path fill="#3D3F3B" opacity="1.000000" stroke="none" 
	d="
M939.385864,301.124481 
	C941.377258,300.683289 943.759216,300.071716 946.140991,300.072205 
	C953.896362,300.073853 961.651733,300.299133 969.707031,300.728699 
	C959.929993,301.090851 949.853149,301.162598 939.385864,301.124481 
z"/>
<path fill="#3D3F3B" opacity="1.000000" stroke="none" 
	d="
M557.387817,301.117157 
	C559.380432,300.679565 561.763855,300.070892 564.146851,300.072205 
	C571.902588,300.076508 579.658142,300.303741 587.712402,300.737671 
	C577.933472,301.095245 567.855896,301.160339 557.387817,301.117157 
z"/>
<path fill="#C9D5E6" opacity="1.000000" stroke="none" 
	d="
M260.909851,216.420959 
	C262.863129,215.924255 262.967743,215.923691 262.979034,218.024078 
	C263.025757,226.719559 263.003693,235.415405 262.926025,244.576370 
	C262.574432,245.035294 262.303680,245.028976 261.627258,245.001694 
	C261.135529,239.303116 261.049500,233.625504 260.907379,227.487045 
	C260.898132,223.642395 260.944946,220.258606 260.909851,216.420959 
z"/>
<path fill="#2E302C" opacity="1.000000" stroke="none" 
	d="
M1152.093506,209.465973 
	C1152.749878,209.501434 1153.844971,210.006882 1153.837158,210.494781 
	C1153.756592,215.560043 1153.498291,220.622467 1152.924805,225.941635 
	C1152.380249,220.774307 1152.200317,215.351059 1152.093506,209.465973 
z"/>
<path fill="#2A2C28" opacity="1.000000" stroke="none" 
	d="
M1336.096191,93.469833 
	C1336.773804,93.833733 1337.908936,94.663818 1337.900635,95.482483 
	C1337.856689,99.886101 1337.528320,104.286888 1336.935547,108.947166 
	C1336.390747,104.114037 1336.208374,99.022392 1336.096191,93.469833 
z"/>
<path fill="#2A2C28" opacity="1.000000" stroke="none" 
	d="
M538.568359,182.101624 
	C538.852417,187.236649 538.711243,192.341415 538.263611,197.732727 
	C538.019165,192.703293 538.081116,187.387314 538.568359,182.101624 
z"/>
<path fill="#2E302C" opacity="1.000000" stroke="none" 
	d="
M1153.095093,255.465240 
	C1153.778564,256.308990 1154.921631,257.623108 1154.898438,258.916412 
	C1154.833740,262.543335 1154.287964,266.161682 1153.550171,269.889465 
	C1153.119629,265.305695 1153.070923,260.615875 1153.095093,255.465240 
z"/>
<path fill="#2A2C28" opacity="1.000000" stroke="none" 
	d="
M1335.095459,48.468475 
	C1335.776855,49.162865 1336.899292,50.314400 1336.904785,51.471268 
	C1336.922607,55.209961 1336.530029,58.950630 1335.933960,62.948334 
	C1335.389893,58.446774 1335.207520,53.687420 1335.095459,48.468475 
z"/>
<path fill="#2A2C28" opacity="1.000000" stroke="none" 
	d="
M1183.435303,300.098755 
	C1183.139648,295.548920 1183.281860,291.053589 1183.728271,286.271606 
	C1183.979248,290.707733 1183.926147,295.430511 1183.435303,300.098755 
z"/>
<path fill="#2A2C28" opacity="1.000000" stroke="none" 
	d="
M1222.095215,110.465500 
	C1225.801514,114.303246 1223.795044,119.060524 1222.924683,123.951202 
	C1222.382690,119.779221 1222.203369,115.351074 1222.095215,110.465500 
z"/>
<path fill="#2A2C28" opacity="1.000000" stroke="none" 
	d="
M1221.096558,64.462891 
	C1224.790527,67.952560 1222.751343,72.394936 1221.921875,76.953613 
	C1221.382202,73.111267 1221.203979,69.014465 1221.096558,64.462891 
z"/>
<path fill="#2A2C28" opacity="1.000000" stroke="none" 
	d="
M693.220459,111.710655 
	C690.885010,111.201683 688.676575,110.365501 686.224609,109.243149 
	C688.241943,108.618126 690.502808,108.279274 693.347595,107.852921 
	C693.347595,109.273628 693.347595,110.328537 693.220459,111.710655 
z"/>
<path fill="#2E302C" opacity="1.000000" stroke="none" 
	d="
M1152.308838,282.137756 
	C1152.679321,284.478333 1152.793701,287.138824 1152.536011,289.897430 
	C1152.126831,287.482941 1152.089722,284.970306 1152.308838,282.137756 
z"/>
<path fill="#2A2C28" opacity="1.000000" stroke="none" 
	d="
M1259.169678,183.732208 
	C1257.189453,183.527237 1255.322144,183.032303 1253.223389,182.259674 
	C1255.068726,182.555695 1258.203125,178.572632 1259.169678,183.732208 
z"/>
<path fill="#2A2C28" opacity="1.000000" stroke="none" 
	d="
M1222.332764,129.117340 
	C1222.690918,130.815506 1222.791626,132.813644 1222.529297,134.901794 
	C1222.135864,133.133636 1222.105469,131.275467 1222.332764,129.117340 
z"/>
<path fill="#2D2F2B" opacity="1.000000" stroke="none" 
	d="
M885.092285,101.428116 
	C888.282349,102.602852 887.339233,104.684746 885.505737,106.912888 
	C885.108704,105.280548 885.064392,103.566017 885.092285,101.428116 
z"/>
<path fill="#2A2C28" opacity="1.000000" stroke="none" 
	d="
M1336.303589,136.112595 
	C1336.658936,137.801773 1336.776855,139.805908 1336.530396,141.900482 
	C1336.132812,140.136475 1336.099487,138.282013 1336.303589,136.112595 
z"/>
<path fill="#2A2C28" opacity="1.000000" stroke="none" 
	d="
M1221.307007,149.102509 
	C1221.655029,150.473907 1221.769531,152.147125 1221.525757,153.906052 
	C1221.136108,152.462616 1221.104858,150.933472 1221.307007,149.102509 
z"/>
<path fill="#262824" opacity="1.000000" stroke="none" 
	d="
M710.653076,44.124832 
	C710.828613,45.629677 710.667969,47.101089 710.218750,48.802502 
	C710.059021,47.385468 710.187927,45.738434 710.653076,44.124832 
z"/>
<path fill="#3D3F3B" opacity="1.000000" stroke="none" 
	d="
M594.331482,300.826721 
	C595.184265,300.358795 596.381714,299.939056 597.795288,299.775391 
	C596.899658,300.312653 595.787964,300.593781 594.331482,300.826721 
z"/>
<path fill="#2D2F2B" opacity="1.000000" stroke="none" 
	d="
M884.090332,57.399773 
	C884.379578,58.290462 884.596619,59.576195 884.482910,60.928543 
	C884.107544,59.928375 884.062805,58.861595 884.090332,57.399773 
z"/>
<path fill="#262824" opacity="1.000000" stroke="none" 
	d="
M795.249878,157.819931 
	C795.092651,157.406494 795.097717,156.775940 795.369080,156.082611 
	C795.560913,156.547485 795.486511,157.075150 795.249878,157.819931 
z"/>
<path fill="#242622" opacity="1.000000" stroke="none" 
	d="
M1256.263184,162.198181 
	C1256.177979,161.515335 1256.368652,160.911423 1256.831055,160.129868 
	C1256.914917,160.727188 1256.726929,161.502151 1256.263184,162.198181 
z"/>
<path fill="#2D2F2B" opacity="1.000000" stroke="none" 
	d="
M885.083496,136.334198 
	C885.636597,136.320175 886.121643,136.635864 886.606689,136.951538 
	C886.312927,137.271088 886.019165,137.590637 885.443665,137.952576 
	C885.113159,137.551285 885.064331,137.107590 885.083496,136.334198 
z"/>
<path fill="#222420" opacity="1.000000" stroke="none" 
	d="
M1406.737915,298.195007 
	C1407.237549,298.429993 1407.602417,298.916168 1407.986084,299.721802 
	C1407.537476,299.509613 1407.070312,298.977905 1406.737915,298.195007 
z"/>
<path fill="#262824" opacity="1.000000" stroke="none" 
	d="
M759.725586,160.234589 
	C760.291199,160.474899 760.631714,160.969833 760.990723,161.781082 
	C760.506348,161.561340 760.003418,161.025284 759.725586,160.234589 
z"/>
<path fill="#242622" opacity="1.000000" stroke="none" 
	d="
M1410.476685,161.077057 
	C1411.036377,161.091049 1411.381226,161.320663 1411.875977,161.825607 
	C1411.437744,161.831528 1410.849854,161.562103 1410.476685,161.077057 
z"/>
<path fill="#21231F" opacity="1.000000" stroke="none" 
	d="
M1381.327881,300.110718 
	C1381.399658,299.708771 1381.804688,299.395355 1382.480347,299.051514 
	C1382.387695,299.413788 1382.024292,299.806488 1381.327881,300.110718 
z"/>
<path fill="#222420" opacity="1.000000" stroke="none" 
	d="
M1096.530029,159.544281 
	C1096.883057,159.915970 1096.939575,160.546890 1097.006470,161.651260 
	C1096.755859,161.350967 1096.494751,160.577240 1096.530029,159.544281 
z"/>
<path fill="#21231F" opacity="1.000000" stroke="none" 
	d="
M795.289795,300.072754 
	C795.061951,299.722351 795.223083,299.450348 795.689453,299.125793 
	C795.800110,299.379669 795.694824,299.738983 795.289795,300.072754 
z"/>
<path fill="#222420" opacity="1.000000" stroke="none" 
	d="
M916.292725,162.156799 
	C916.137268,161.838745 916.302307,161.547333 916.691589,161.136780 
	C916.815002,161.406250 916.714172,161.794846 916.292725,162.156799 
z"/>
<path fill="#21231F" opacity="1.000000" stroke="none" 
	d="
M765.887512,299.320038 
	C766.225037,299.179535 766.511169,299.372437 766.904419,299.805847 
	C766.619812,299.915375 766.227905,299.784424 765.887512,299.320038 
z"/>
<path fill="#21231F" opacity="1.000000" stroke="none" 
	d="
M845.307007,288.975037 
	C845.207031,288.689026 845.404663,288.428528 845.835938,288.075195 
	C845.914551,288.321747 845.759644,288.661163 845.307007,288.975037 
z"/>
<path fill="#21231F" opacity="1.000000" stroke="none" 
	d="
M818.132629,288.283508 
	C818.417969,288.119629 818.633240,288.281342 818.885864,288.696228 
	C818.688232,288.766907 818.401367,288.653473 818.132629,288.283508 
z"/>
<path fill="#222420" opacity="1.000000" stroke="none" 
	d="
M884.104370,161.334183 
	C884.462280,161.142639 884.699768,161.356598 884.940308,161.893311 
	C884.708862,161.962723 884.389038,161.803925 884.104370,161.334183 
z"/>
<path fill="#2A2C28" opacity="1.000000" stroke="none" 
	d="
M1221.701294,44.104988 
	C1221.881958,44.431198 1221.704590,44.656956 1221.248535,44.907185 
	C1221.171753,44.683506 1221.296143,44.374466 1221.701294,44.104988 
z"/>
<path fill="#21231F" opacity="1.000000" stroke="none" 
	d="
M870.140015,299.312866 
	C870.457886,299.147827 870.675476,299.339050 870.914917,299.807251 
	C870.703186,299.871429 870.404175,299.733032 870.140015,299.312866 
z"/>
<path fill="#21231F" opacity="1.000000" stroke="none" 
	d="
M901.301025,300.087769 
	C901.060120,299.720856 901.228333,299.441864 901.717590,299.116699 
	C901.833252,299.381073 901.723816,299.749481 901.301025,300.087769 
z"/>
<path fill="#2A2C28" opacity="1.000000" stroke="none" 
	d="
M1151.874146,299.324036 
	C1152.204102,299.184235 1152.494995,299.382263 1152.899170,299.823242 
	C1152.620117,299.931427 1152.227539,299.796661 1151.874146,299.324036 
z"/>
<path fill="#21231F" opacity="1.000000" stroke="none" 
	d="
M1218.730469,299.405212 
	C1218.959229,299.256195 1219.326172,299.399963 1219.853516,299.795898 
	C1219.631958,299.931396 1219.250366,299.814697 1218.730469,299.405212 
z"/>
<path fill="#21231F" opacity="1.000000" stroke="none" 
	d="
M1271.137451,299.329254 
	C1271.490845,299.159821 1271.706909,299.358490 1271.932373,299.841675 
	C1271.697266,299.907928 1271.383301,299.764984 1271.137451,299.329254 
z"/>
<path fill="#21231F" opacity="1.000000" stroke="none" 
	d="
M1305.253906,300.101959 
	C1305.246582,299.885498 1305.500000,299.737671 1305.862915,299.738007 
	C1305.819702,299.980957 1305.667114,300.075806 1305.253906,300.101959 
z"/>
<path fill="#21231F" opacity="1.000000" stroke="none" 
	d="
M1346.070679,299.314392 
	C1346.413574,299.104401 1346.662964,299.297546 1346.920898,299.819672 
	C1346.692749,299.900787 1346.375366,299.757080 1346.070679,299.314392 
z"/>
<path fill="#222420" opacity="1.000000" stroke="none" 
	d="
M1442.283447,300.053101 
	C1442.069580,299.729034 1442.219482,299.473907 1442.637817,299.148560 
	C1442.744629,299.382019 1442.658447,299.729919 1442.283447,300.053101 
z"/>
<path fill="#222420" opacity="1.000000" stroke="none" 
	d="
M870.290649,162.161285 
	C870.044556,161.804886 870.196838,161.522385 870.637695,161.157532 
	C870.766602,161.418411 870.687561,161.805069 870.290649,162.161285 
z"/>
<path fill="#222420" opacity="1.000000" stroke="none" 
	d="
M834.121094,161.316071 
	C834.446716,161.142380 834.676636,161.345383 834.923096,161.848969 
	C834.709961,161.912170 834.405273,161.759888 834.121094,161.316071 
z"/>
<path fill="#262824" opacity="1.000000" stroke="none" 
	d="
M794.275452,162.055222 
	C794.076721,161.747269 794.230164,161.489075 794.644531,161.150879 
	C794.744507,161.375015 794.651917,161.719711 794.275452,162.055222 
z"/>
<path fill="#222420" opacity="1.000000" stroke="none" 
	d="
M745.295776,162.160095 
	C745.140564,161.837814 745.310120,161.542526 745.710022,161.130219 
	C745.833740,161.404480 745.727112,161.795792 745.295776,162.160095 
z"/>
<path fill="#242622" opacity="1.000000" stroke="none" 
	d="
M851.711792,182.100479 
	C851.895691,182.423447 851.728943,182.651871 851.279785,182.902191 
	C851.201843,182.678772 851.323059,182.372726 851.711792,182.100479 
z"/>
<path fill="#222420" opacity="1.000000" stroke="none" 
	d="
M919.717285,182.118774 
	C919.898865,182.414246 919.750000,182.625397 919.353882,182.875763 
	C919.272522,182.672607 919.365906,182.379120 919.717285,182.118774 
z"/>
<path fill="#222420" opacity="1.000000" stroke="none" 
	d="
M1152.665894,182.101105 
	C1152.862061,182.456894 1152.649048,182.696503 1152.110352,182.939240 
	C1152.038940,182.709488 1152.196289,182.390335 1152.665894,182.101105 
z"/>
<path fill="#222420" opacity="1.000000" stroke="none" 
	d="
M1190.734375,182.130081 
	C1190.958740,182.233795 1190.601929,182.560883 1190.601929,182.560883 
	C1190.601929,182.560883 1190.174438,182.439301 1190.101318,182.289001 
	C1190.028320,182.138718 1190.509888,182.026367 1190.734375,182.130081 
z"/>
<path fill="#242622" opacity="1.000000" stroke="none" 
	d="
M777.711853,182.093750 
	C777.905640,182.415497 777.746704,182.643417 777.308594,182.895996 
	C777.223511,182.672501 777.333435,182.365601 777.711853,182.093750 
z"/>
<path fill="#242622" opacity="1.000000" stroke="none" 
	d="
M1307.734863,182.080353 
	C1307.978516,182.135437 1307.707275,182.530029 1307.707275,182.530029 
	C1307.707275,182.530029 1307.267944,182.517853 1307.161133,182.392685 
	C1307.054321,182.267517 1307.491211,182.025269 1307.734863,182.080353 
z"/>
<path fill="#242622" opacity="1.000000" stroke="none" 
	d="
M1350.906738,182.719177 
	C1350.609741,182.907990 1350.383301,182.754303 1350.118652,182.333984 
	C1350.325439,182.249985 1350.624268,182.353073 1350.906738,182.719177 
z"/>
<path fill="#242622" opacity="1.000000" stroke="none" 
	d="
M1381.603760,182.110825 
	C1381.673584,182.404739 1381.369019,182.673279 1380.769409,183.047241 
	C1380.725952,182.796906 1380.977661,182.441177 1381.603760,182.110825 
z"/>
<path fill="#242622" opacity="1.000000" stroke="none" 
	d="
M1469.076050,182.689789 
	C1468.837524,182.893814 1468.546143,182.759018 1468.159546,182.340424 
	C1468.347046,182.234680 1468.666626,182.332794 1469.076050,182.689789 
z"/>
<path fill="#222420" opacity="1.000000" stroke="none" 
	d="
M1130.331909,162.130920 
	C1130.215942,161.802841 1130.459473,161.488480 1130.978760,161.045319 
	C1131.066895,161.325867 1130.879150,161.735260 1130.331909,162.130920 
z"/>
<path fill="#222420" opacity="1.000000" stroke="none" 
	d="
M709.823853,161.325623 
	C710.172119,161.179230 710.479614,161.390579 710.909119,161.858582 
	C710.615112,161.971268 710.199158,161.827316 709.823853,161.325623 
z"/>
<path fill="#222420" opacity="1.000000" stroke="none" 
	d="
M1521.297363,162.158875 
	C1521.134277,161.839615 1521.295532,161.550873 1521.676880,161.141983 
	C1521.805298,161.411026 1521.713623,161.800201 1521.297363,162.158875 
z"/>
<path fill="#242622" opacity="1.000000" stroke="none" 
	d="
M1445.282715,162.109940 
	C1445.063110,161.772446 1445.221924,161.496597 1445.667480,161.145126 
	C1445.778564,161.391998 1445.680908,161.759354 1445.282715,162.109940 
z"/>
<path fill="#222420" opacity="1.000000" stroke="none" 
	d="
M1404.331055,162.150604 
	C1404.269287,161.822525 1404.567383,161.534515 1405.177246,161.174652 
	C1405.222900,161.465424 1404.956909,161.828033 1404.331055,162.150604 
z"/>
<path fill="#222420" opacity="1.000000" stroke="none" 
	d="
M1336.241821,162.167023 
	C1336.267822,161.961365 1336.552124,161.850128 1336.929932,161.916290 
	C1336.849121,162.149597 1336.674561,162.205521 1336.241821,162.167023 
z"/>
<path fill="#242622" opacity="1.000000" stroke="none" 
	d="
M819.157898,182.733047 
	C818.882874,182.880463 818.585693,182.721771 818.156677,182.345123 
	C818.395142,182.227097 818.765442,182.327026 819.157898,182.733047 
z"/>
<path fill="#242622" opacity="1.000000" stroke="none" 
	d="
M1221.034424,161.336273 
	C1221.329590,161.226669 1221.586670,161.441315 1221.937256,161.895065 
	C1221.686035,161.976288 1221.341309,161.818405 1221.034424,161.336273 
z"/>
<path fill="#242622" opacity="1.000000" stroke="none" 
	d="
M1206.387451,162.148117 
	C1206.217773,161.795822 1206.458618,161.485733 1206.973145,161.052795 
	C1207.097046,161.350067 1206.947632,161.770203 1206.387451,162.148117 
z"/>
<path fill="#242622" opacity="1.000000" stroke="none" 
	d="
M1170.878662,161.312256 
	C1171.172485,161.182999 1171.481079,161.397171 1171.911133,161.870468 
	C1171.652954,161.971619 1171.273193,161.813644 1170.878662,161.312256 
z"/>
<path fill="#FFFFFF" opacity="1.000000" stroke="none" 
	d="
M423.539185,132.595596 
	C406.938232,144.539505 388.025482,150.224564 369.162872,155.997528 
	C347.320557,162.682419 325.160370,168.495865 305.044983,179.827286 
	C304.810486,179.959366 304.410706,179.797989 303.586456,179.735687 
	C303.586456,178.156387 303.586426,176.542603 303.586456,174.928818 
	C303.586609,138.947952 303.578491,102.967094 303.590912,66.986229 
	C303.595947,52.390732 310.384857,45.511753 324.878113,45.553181 
	C349.860016,45.624592 374.893921,44.830151 399.807129,46.198692 
	C420.128601,47.315002 434.068542,59.478302 440.443848,78.601517 
	C446.740479,97.488785 442.584045,114.666695 427.993958,128.805161 
	C426.682129,130.076355 425.216095,131.188431 423.539185,132.595596 
z"/>
<path fill="#FEFFFF" opacity="1.000000" stroke="none" 
	d="
M318.023163,259.910400 
	C299.836670,253.840317 300.308075,234.657227 311.706573,224.725922 
	C320.638947,216.943344 331.071991,211.904099 342.027710,208.030716 
	C356.381470,202.955948 370.948212,198.476669 385.461914,193.862686 
	C412.275513,185.338547 438.734161,176.157440 459.369202,155.386536 
	C477.681000,169.892532 486.212341,188.513489 482.587616,211.193207 
	C478.766479,235.102188 464.190063,250.681442 440.968933,257.892029 
	C438.289551,258.724030 435.454834,259.055725 431.880585,259.755432 
	C393.387085,259.897766 355.705109,259.904083 318.023163,259.910400 
z"/>
<path fill="#00277F" opacity="1.000000" stroke="none" 
	d="
M318.295837,260.228546 
	C355.705109,259.904083 393.387085,259.897766 431.535980,259.937622 
	C430.779083,260.322205 429.555634,260.954529 428.331299,260.956299 
	C392.548950,261.008545 356.766510,261.000916 320.984100,260.978607 
	C320.178802,260.978088 319.373688,260.696930 318.295837,260.228546 
z"/>
<path fill="#FFFFFF" opacity="1.000000" stroke="none" 
	d="
M150.938705,173.828400 
	C143.517975,171.298492 137.654083,167.006180 135.218445,159.208496 
	C130.964981,145.591049 140.669235,132.009537 155.075684,131.850708 
	C176.072327,131.619217 197.073547,131.803040 218.537079,132.375000 
	C218.956238,146.615524 218.911163,160.290833 218.866089,173.966156 
	C198.211304,173.975143 177.556519,173.984131 156.021729,174.004700 
	C153.740723,173.953659 152.339722,173.891037 150.938705,173.828400 
z"/>
<path fill="#00277F" opacity="1.000000" stroke="none" 
	d="
M219.193878,173.703888 
	C218.911163,160.290833 218.956238,146.615524 218.996674,132.471863 
	C219.275620,132.400452 219.808655,132.798553 219.806778,133.194107 
	C219.743164,146.610092 219.628738,160.025833 219.193878,173.703888 
z"/>
<path fill="#002D83" opacity="1.000000" stroke="none" 
	d="
M151.146820,174.121002 
	C152.339722,173.891037 153.740723,173.953659 155.557129,174.082916 
	C154.433319,174.237579 152.894119,174.325592 151.146820,174.121002 
z"/>
<path fill="#FDFDFD" opacity="1.000000" stroke="none" 
	d="
M961.063293,277.169067 
	C958.439270,277.026520 956.297607,276.920837 953.608643,276.788147 
	C953.608643,269.259521 953.608643,261.885742 953.608643,253.640701 
	C959.086609,253.640701 964.684448,253.435898 970.260498,253.697189 
	C976.061951,253.969070 980.936340,258.724670 981.269958,263.915527 
	C981.695862,270.540955 978.130859,275.492004 971.443359,276.771820 
	C968.233948,277.386047 964.850342,277.089813 961.063293,277.169067 
z"/>
<path fill="#FBFBFB" opacity="1.000000" stroke="none" 
	d="
M954.037598,221.946915 
	C954.045959,216.500214 954.045959,211.541595 954.045959,205.691589 
	C959.872803,206.316757 964.824280,206.449631 969.590576,207.457840 
	C975.883545,208.788971 977.985168,212.881393 977.077209,220.462555 
	C976.392639,226.178009 971.785522,230.759705 966.176636,230.835815 
	C962.228027,230.889435 958.272034,230.401138 954.029297,230.136734 
	C954.029297,227.376923 954.029297,224.905960 954.037598,221.946915 
z"/>
<path fill="#FCFCFC" opacity="1.000000" stroke="none" 
	d="
M586.732422,253.677856 
	C594.911072,254.452713 599.546997,258.487183 599.726685,264.566864 
	C599.925537,271.296936 595.269165,276.343750 587.553223,277.010681 
	C582.501221,277.447418 577.380798,277.093109 571.763550,277.093109 
	C571.763550,269.113495 571.763550,261.736603 571.763550,253.694046 
	C576.705261,253.694046 581.487183,253.694046 586.732422,253.677856 
z"/>
<path fill="#FAFAFA" opacity="1.000000" stroke="none" 
	d="
M592.746460,226.669159 
	C586.518799,233.054749 579.280029,230.343842 572.604858,230.075043 
	C572.604858,222.060928 572.604858,214.304916 572.604858,205.709625 
	C578.116638,206.306717 583.107483,206.363983 587.854248,207.469406 
	C595.960632,209.357239 598.038574,217.607025 592.746460,226.669159 
z"/>
<path fill="#FEFEFE" opacity="1.000000" stroke="none" 
	d="
M1510.648682,256.093384 
	C1510.709961,244.382919 1510.319824,233.069382 1511.179199,221.851578 
	C1511.833862,213.306946 1516.553711,209.711685 1525.021240,209.096375 
	C1535.156982,208.359833 1541.329956,211.442902 1543.409058,219.708267 
	C1547.184326,234.715271 1547.360474,250.000122 1544.098633,265.131531 
	C1542.499146,272.550842 1538.763184,274.823730 1530.269287,275.350555 
	C1521.198853,275.913116 1515.811279,273.519867 1513.268433,267.113831 
	C1511.943970,263.776917 1511.549438,260.070801 1510.648682,256.093384 
z"/>
<path fill="#FCFCFC" opacity="1.000000" stroke="none" 
	d="
M1279.847412,82.391205 
	C1279.612305,85.283798 1279.578247,87.801643 1279.041992,90.207596 
	C1277.395752,97.594978 1272.741943,101.172874 1265.320312,100.937096 
	C1262.680664,100.853226 1260.045898,100.617615 1257.009888,100.426109 
	C1257.009888,95.244873 1257.009766,90.329926 1257.009766,85.414970 
	C1257.009766,80.441620 1257.009888,75.468269 1257.009888,70.614037 
	C1270.229980,67.296478 1277.343140,70.945602 1279.847412,82.391205 
z"/>
<path fill="#FEFEFE" opacity="1.000000" stroke="none" 
	d="
M682.996094,233.097153 
	C683.300781,229.477234 683.452393,226.319351 683.929810,223.211517 
	C685.461365,213.240982 689.416382,209.513016 698.699036,209.067032 
	C709.475098,208.549301 714.871216,211.992661 717.025696,221.701965 
	C720.119263,235.643494 719.972046,249.782974 717.692139,263.801605 
	C716.348145,272.065186 711.606018,275.191467 702.284973,275.412262 
	C692.374512,275.647003 686.654175,272.451294 685.273315,263.788605 
	C683.689209,253.851059 683.683472,243.661942 682.996094,233.097153 
z"/>
<path fill="#FEFEFE" opacity="1.000000" stroke="none" 
	d="
M1065.628662,257.232727 
	C1065.679321,245.029953 1065.242676,233.214859 1066.161499,221.506134 
	C1066.820557,213.107925 1071.441040,209.745117 1079.749878,209.101440 
	C1089.719238,208.329132 1095.838501,211.214127 1098.011108,219.137482 
	C1102.252075,234.603348 1102.251587,250.351425 1098.830444,265.990509 
	C1097.614258,271.549530 1093.602661,274.487701 1087.772705,275.113525 
	C1073.300415,276.667084 1067.562744,272.208649 1065.628662,257.232727 
z"/>
<path fill="#F8F8F8" opacity="1.000000" stroke="none" 
	d="
M1467.821411,77.177505 
	C1470.901978,89.951553 1473.623657,102.538864 1476.528687,115.974274 
	C1469.366577,116.373878 1462.888672,116.735313 1455.515259,117.146721 
	C1457.808838,108.537827 1459.858765,100.907593 1461.870361,93.267281 
	C1462.965454,89.107811 1463.885498,84.898338 1465.116699,80.780861 
	C1465.527832,79.406586 1466.660034,78.247986 1467.821411,77.177505 
z"/>
<path fill="#F6F6F6" opacity="1.000000" stroke="none" 
	d="
M1325.924683,254.846878 
	C1322.831787,254.839752 1320.205200,254.839752 1316.359741,254.839752 
	C1320.023071,240.884277 1323.455811,227.807159 1326.888550,214.730042 
	C1327.558960,214.709412 1328.229370,214.688766 1328.899780,214.668137 
	C1331.604492,227.386124 1334.309204,240.104111 1337.130005,253.368042 
	C1333.373657,253.887802 1329.882202,254.370911 1325.924683,254.846878 
z"/>
<path fill="#F8F8F8" opacity="1.000000" stroke="none" 
	d="
M815.791626,116.924866 
	C812.032288,116.930328 808.739380,116.930328 804.496887,116.930328 
	C808.143311,103.069412 811.593628,89.953941 815.043945,76.838478 
	C815.712891,76.790771 816.381836,76.743057 817.050720,76.695351 
	C819.770081,89.499641 822.489380,102.303932 825.259888,115.349403 
	C821.978516,115.921707 819.118286,116.420563 815.791626,116.924866 
z"/>
<path fill="#F8F8F8" opacity="1.000000" stroke="none" 
	d="
M1153.013672,77.006081 
	C1156.059326,89.175224 1158.758789,101.298050 1161.213989,113.470139 
	C1161.400513,114.395180 1159.900513,116.593674 1159.106323,116.633316 
	C1153.508789,116.912781 1147.890625,116.781685 1142.167847,116.781685 
	C1142.056152,115.403404 1141.769165,114.543251 1141.959106,113.805916 
	C1145.059937,101.769287 1148.213379,89.746078 1151.409790,77.734413 
	C1151.499268,77.397995 1152.193848,77.222588 1153.013672,77.006081 
z"/>
</svg>