<?xml version="1.0" encoding="utf-8"?>
<!-- Generator: Adobe Illustrator 24.3.0, SVG Export Plug-In . SVG Version: 6.00 Build 0)  -->
<svg version="1.1" id="Camada_1" xmlns="http://www.w3.org/2000/svg" xmlns:xlink="http://www.w3.org/1999/xlink" x="0px" y="0px"
	 viewBox="0 0 230 51" style="enable-background:new 0 0 230 51;" xml:space="preserve">
<style type="text/css">
	.st0{fill:none;}
	.st1{fill:url(#SVGID_1_);}
	.st2{fill:url(#SVGID_2_);}
	.st3{fill:url(#SVGID_3_);}
	.st4{fill:url(#SVGID_4_);}
	.st5{fill:url(#SVGID_5_);}
	.st6{fill:#17335C;}
	.st7{fill:#79187F;}
</style>
<g>
	<path class="st0" d="M48.9,8.2c-0.7,0-1.3,0.6-1.3,1.3c0,0.7,0.6,1.4,1.4,1.4c0.7,0,1.3-0.6,1.3-1.4C50.2,8.8,49.7,8.2,48.9,8.2z"
		/>
	<path class="st0" d="M28.5,18.4c0.7,0,1.3-0.6,1.3-1.4c0-0.7-0.6-1.3-1.3-1.3c-0.7,0-1.3,0.6-1.4,1.3
		C27.2,17.8,27.8,18.4,28.5,18.4z"/>
	<path class="st0" d="M28.6,33.4c0.7,0,1.4-0.6,1.4-1.3c0-0.7-0.6-1.3-1.4-1.4c-0.7,0-1.3,0.6-1.4,1.3
		C27.2,32.8,27.8,33.4,28.6,33.4z"/>
	<path class="st0" d="M48.9,23.2c-0.7,0-1.4,0.6-1.4,1.4s0.6,1.3,1.3,1.3c0.8,0,1.3-0.6,1.3-1.4C50.2,23.8,49.7,23.2,48.9,23.2z"/>
	<linearGradient id="SVGID_1_" gradientUnits="userSpaceOnUse" x1="165.931" y1="-73.8844" x2="16.12" y2="23.6561">
		<stop  offset="1.000000e-04" style="stop-color:#751B7E"/>
		<stop  offset="0.9999" style="stop-color:#2A3461"/>
		<stop  offset="1" style="stop-color:#2B3461"/>
	</linearGradient>
	<path class="st1" d="M11.8,12.2c0-2,0-4,0-6c0-0.2,0-0.5,0.1-0.7c0.3-0.6,0.8-0.9,1.5-0.9c10.2,0,20.4,0,30.6,0
		c6.8,0,13.6,0,20.4,0c1,0,1.6,0.6,1.6,1.6c0,0.5,0,1,0,1.5c0,0.4,0,0.4-0.4,0.4c-4.5,0-9,0-13.4,0c-0.4,0-0.6-0.1-0.8-0.4
		c-0.8-1.2-2.5-1.6-3.8-0.9c-1.3,0.7-2,2.2-1.6,3.6c0.4,1.2,1.2,2,2.5,2.2c1.2,0.2,2.3-0.3,3-1.3c0.1-0.2,0.3-0.3,0.5-0.3
		c8,0,15.9,0,23.8,0c0.1,0,0.3,0,0.4,0c1,0,1.6-0.8,1.4-1.8C77.4,8.5,76.9,8,76.1,8c-1.7,0-3.5,0-5.2,0c-0.4,0-0.4,0-0.4-0.4
		c0-0.6,0-1.1,0-1.7c0-0.8-0.2-1.5-0.5-2.2C68.9,1.3,67,0,64.3,0c-17,0-34,0-51,0C9.9,0,7.2,2.7,7.2,6.2c0,2,0,4,0,6.1
		c0,0.1,0,0.2,0,0.3c1.6,0,3.1,0,4.6,0C11.8,12.4,11.8,12.3,11.8,12.2z M48.9,10.9c-0.7,0-1.4-0.6-1.4-1.4c0-0.7,0.6-1.3,1.3-1.3
		c0.7,0,1.3,0.6,1.3,1.3C50.2,10.3,49.7,10.9,48.9,10.9z"/>
	<linearGradient id="SVGID_2_" gradientUnits="userSpaceOnUse" x1="162.6452" y1="-47.9891" x2="12.9182" y2="49.4967">
		<stop  offset="1.000000e-04" style="stop-color:#751B7E"/>
		<stop  offset="0.9999" style="stop-color:#2A3461"/>
		<stop  offset="1" style="stop-color:#2B3461"/>
	</linearGradient>
	<path class="st2" d="M65.9,29.4c0,1.9,0,3.8,0,5.7c0,0.3-0.1,0.7-0.2,0.9c-0.3,0.6-0.8,0.7-1.4,0.7c-16.9,0-33.9,0-50.8,0
		c-0.1,0-0.3,0-0.4,0c-0.6,0-1.2-0.5-1.2-1.1c-0.1-0.7,0-1.4,0-2.1c0.1,0,0.2,0,0.4,0c4.4,0,8.9,0,13.3,0c0.2,0,0.4,0.1,0.5,0.3
		c0.8,1.2,2.4,1.7,3.7,1.1c1.3-0.5,2.1-2,1.8-3.4c-0.2-1.2-1.1-2.2-2.3-2.5c-1.2-0.3-2.5,0.2-3.2,1.2c-0.1,0.2-0.3,0.3-0.6,0.3
		c-7.9,0-15.7,0-23.6,0c-0.1,0-0.3,0-0.5,0c-1,0.1-1.6,1-1.2,2c0.2,0.6,0.8,1,1.5,1c1.7,0,3.4,0,5.1,0c0.4,0,0.4,0,0.4,0.4
		c0,0.5,0,0.9,0,1.4c0.1,0.6,0.1,1.3,0.3,1.9c0.8,2.6,3.2,4.2,5.8,4.2c17,0,34.1,0,51.1,0c0.3,0,0.7,0,1-0.1c3-0.4,5.2-3,5.2-6.1
		c0-1.9,0-3.9,0-5.8c0-0.1,0-0.2,0-0.3c-1.6,0-3.1,0-4.6,0C65.9,29.2,65.9,29.3,65.9,29.4z M28.6,30.7c0.7,0,1.3,0.6,1.4,1.4
		c0,0.7-0.6,1.3-1.4,1.3c-0.7,0-1.4-0.6-1.4-1.4C27.2,31.3,27.8,30.7,28.6,30.7z"/>
	<linearGradient id="SVGID_3_" gradientUnits="userSpaceOnUse" x1="138.6532" y1="-16.7912" x2="19.4218" y2="60.8392">
		<stop  offset="1.000000e-04" style="stop-color:#751B7E"/>
		<stop  offset="0.9999" style="stop-color:#2A3461"/>
		<stop  offset="1" style="stop-color:#2B3461"/>
	</linearGradient>
	<path class="st3" d="M64.5,45.4c-5.6,0-11.1,0-16.7,0c-11.6,0-23.3,0-34.9,0c-0.7,0-1.3,0.3-1.8,0.8c-0.6,0.7-0.8,1.5-0.7,2.4
		c0.2,1.6,1.1,2.4,2.7,2.4c8.5,0,17,0,25.6,0c4.6,0,9.3,0,13.9,0c4,0,8,0,11.9,0c0.8,0,1.5-0.4,1.9-1c0.4-0.7,0.5-1.4,0.5-2.2
		C66.9,46.6,66,45.4,64.5,45.4z"/>
	<linearGradient id="SVGID_4_" gradientUnits="userSpaceOnUse" x1="117.7748" y1="-12.387" x2="50.5136" y2="31.4062">
		<stop  offset="1.000000e-04" style="stop-color:#751B7E"/>
		<stop  offset="0.9999" style="stop-color:#2A3461"/>
		<stop  offset="1" style="stop-color:#2B3461"/>
	</linearGradient>
	<path class="st4" d="M76.2,23.1c-1.7,0-3.5,0-5.2,0c-0.4,0-0.4,0-0.4-0.4c0-2.8,0-5.5,0-8.3c0-0.1,0-0.2,0-0.4c-1.5,0-3.1,0-4.6,0
		c0,0.1,0,0.3,0,0.4c0,2.8,0,5.5,0,8.3c0,0.4,0,0.4-0.4,0.4c-4.5,0-9,0-13.5,0c-0.3,0-0.5-0.1-0.7-0.3c-0.8-1.2-2.5-1.6-3.8-1
		c-1.3,0.6-2.1,2.2-1.7,3.6c0.4,1.2,1.2,2,2.5,2.2c1.2,0.2,2.3-0.2,3-1.2c0.2-0.2,0.3-0.3,0.6-0.3c8,0,15.9,0,23.9,0
		c0.2,0,0.5,0,0.7-0.1c0.7-0.2,1.1-0.9,1-1.6C77.5,23.6,76.9,23.1,76.2,23.1z M48.9,25.9c-0.7,0-1.3-0.6-1.3-1.3s0.6-1.4,1.4-1.4
		s1.3,0.6,1.3,1.3C50.2,25.3,49.7,25.9,48.9,25.9z"/>
	<linearGradient id="SVGID_5_" gradientUnits="userSpaceOnUse" x1="72.0688" y1="-19.1353" x2="5.3481" y2="24.3058">
		<stop  offset="1.000000e-04" style="stop-color:#751B7E"/>
		<stop  offset="0.9999" style="stop-color:#2A3461"/>
		<stop  offset="1" style="stop-color:#2B3461"/>
	</linearGradient>
	<path class="st5" d="M1.6,18.5c1.7,0,3.5,0,5.2,0c0.5,0,0.4,0,0.4,0.4c0,2.8,0,5.5,0,8.3c0,0.1,0,0.2,0,0.4c1.6,0,3.1,0,4.6,0
		c0-3,0-6,0-9c0.1,0,0.3,0,0.4,0c4.4,0,8.9,0,13.3,0c0.2,0,0.4,0.1,0.5,0.3c0.8,1.2,2.4,1.7,3.7,1.1c1.4-0.5,2.1-2,1.8-3.4
		c-0.2-1.2-1.2-2.2-2.3-2.4c-1.3-0.3-2.5,0.2-3.2,1.2c-0.1,0.2-0.3,0.3-0.6,0.3c-7.9,0-15.8,0-23.7,0c-0.3,0-0.6,0-0.8,0.2
		c-0.6,0.3-0.9,1-0.8,1.6C0.3,18,0.9,18.5,1.6,18.5z M28.5,15.7c0.7,0,1.4,0.6,1.3,1.3c0,0.7-0.6,1.4-1.3,1.4
		c-0.7,0-1.4-0.6-1.4-1.4C27.2,16.3,27.8,15.7,28.5,15.7z"/>
</g>
<g>
	<path class="st6" d="M131.6,11.7c-0.4,0.1-0.5,0.3-0.5,0.7c0.1,1.7,0.2,3.4,0.3,5.1c0,0.8,0,1.6,0,2.5c-0.1-0.2-0.2-0.3-0.2-0.4
		c-1-2.5-2.3-4.9-3.9-7.1c-0.1-0.2-0.3-0.3-0.5-0.3c-1.5,0.1-3,0.4-4.3,1.1c-0.1,0.1-0.2,0.3-0.2,0.4c0,1.4,0,2.8,0,4.2
		c0.1,2.7,0.3,5.4,0.5,8c0.1,1.1,0.2,2.2,0.3,3.5c1.2-0.1,2.4-0.2,3.7-0.4c0-3.3,0-6.5,0-9.7c0,0,0.1,0,0.1,0c0.3,0.6,0.7,1.1,1,1.7
		c1,2.2,2.1,4.5,3.1,6.8c0.1,0.2,0.2,0.3,0.5,0.3c1.1-0.1,2.2-0.2,3.3-0.4c0.4,0,0.5-0.2,0.5-0.5c0.1-1.9,0.2-3.8,0.3-5.7
		c0-2.9,0.1-5.9,0.1-8.8c0-0.5,0-1-0.1-1.5C134.2,11.1,132.9,11.4,131.6,11.7z"/>
	<path class="st6" d="M101.8,22.7c-0.5-0.7-1-1.5-1.6-2.2c0.9-0.6,1.7-1.3,2.2-2.3c1.2-2.1,1-5.7-2.6-6.9c-1.2-0.4-2.4-0.5-3.7-0.4
		c-1.7,0.1-3.2,0.7-4.6,1.7c-0.1,0.1-0.2,0.3-0.2,0.4c0.2,1.5,0.4,2.9,0.5,4.4c0.2,3.2,0.2,6.4,0.3,9.6c0,0.4,0,0.7,0,1.2
		c1.3,0.1,2.5,0.2,3.8,0.2c0-0.6,0.1-1,0.1-1.5c0.1-1.5,0.1-2.9,0.2-4.4c0-0.2,0.2-0.4,0.3-0.5c0.1,0,0.4,0.1,0.5,0.2
		c0.4,0.5,0.7,1.1,1,1.7c0.9,1.8,1.7,3.6,2.6,5.5c1.4-0.4,2.7-1,3.8-2c0.1-0.1,0.1-0.3,0-0.5C103.6,25.7,102.7,24.2,101.8,22.7z
		 M97.6,18.7c-0.3,0.4-0.8,0.6-1.2,0.9c0,0-0.1-0.1-0.2-0.1c0-2,0-4,0-6c0.9,0,1.7,0.4,1.9,1.3C98.6,16.2,98.6,17.6,97.6,18.7z"/>
	<path class="st6" d="M213.6,12.5c-2.6-1.5-6.5-0.7-8.5,1.8c-1.6,2-2.2,4.3-2.2,6.8c0,1.3,0.1,2.6,0.6,3.9c0.7,2,1.9,3.5,4.1,3.8
		c2.7,0.4,4.9-0.5,6.4-2.7c2.2-3.1,2.7-6.6,1.9-10.2C215.7,14.4,214.9,13.3,213.6,12.5z M211.1,24.5c0,0.1-0.1,0.2-0.1,0.3
		c-0.2,0.6-0.6,1-1.3,1.1c-0.7,0-1.2-0.4-1.4-1c-0.3-0.9-0.6-1.8-0.7-2.7c-0.2-1.7-0.1-3.5,0.3-5.2c0.1-0.5,0.3-1,0.6-1.5
		c0.3-0.5,0.8-0.8,1.4-0.7c0.6,0,1,0.4,1.2,1c0.2,0.7,0.4,1.4,0.5,2.1c0.1,0.7,0.1,1.5,0.1,2.2C211.6,21.5,211.6,23.1,211.1,24.5z"
		/>
	<path class="st6" d="M174.3,19.6c-0.8-2.3-1.7-4.4-3-6.5c-0.1-0.2-0.4-0.4-0.6-0.4c-1-0.1-2.1-0.2-3.2-0.4c-0.3,0-0.4,0.1-0.5,0.4
		c-0.4,1.5-0.8,2.9-1.3,4.3c-1.1,3.4-2.4,6.6-4.1,9.8c-0.2,0.3-0.1,0.5,0.1,0.7c0.8,0.8,1.8,1.2,2.9,1.5c0.4,0.1,0.5,0,0.6-0.3
		c0.4-1,0.8-2,1.2-2.9c0-0.2,0.3-0.4,0.5-0.4c1.3-0.1,2.6-0.2,3.9-0.2c0.4,0,0.5,0.1,0.6,0.5c0.3,1.7,0.6,3.5,0.9,5.3
		c1.1,0,3.3-0.6,4.3-1.2c0.1,0,0.2-0.2,0.2-0.4c-0.1-0.7-0.2-1.4-0.4-2C175.8,24.7,175.2,22.1,174.3,19.6z M167.5,22.4
		c0.5-1.6,0.9-3.2,1.4-4.8c0,0,0.1,0,0.1,0c0.5,1.5,1,3,1.5,4.5C169.4,22.2,168.4,22.3,167.5,22.4z"/>
	<path class="st6" d="M120.1,25.6c-0.5-2.1-1.1-4.1-1.8-6.1c-0.7-2.2-1.7-4.3-2.9-6.3c-0.1-0.2-0.4-0.4-0.6-0.4
		c-1-0.1-2-0.2-3.1-0.4c-0.4,0-0.5,0.1-0.6,0.5c-0.4,1.5-0.8,2.9-1.3,4.4c-1.1,3.4-2.4,6.6-4.1,9.7c-0.2,0.3-0.1,0.5,0.1,0.7
		c0.9,0.8,1.9,1.3,3.1,1.6c0.1,0,0.3-0.1,0.4-0.2c0.5-1,0.9-2,1.2-3c0.1-0.3,0.2-0.5,0.6-0.5c1.1,0,2.2-0.1,3.3-0.2
		c0.3,0,0.7,0,1.1,0c0.2,1,0.4,1.9,0.6,2.9c0.1,1,0.2,1.9,0.4,2.9c0.1,0,0.2,0,0.5,0c1.3-0.2,2.5-0.5,3.7-1.1
		c0.3-0.2,0.4-0.4,0.3-0.7C120.6,28,120.4,26.8,120.1,25.6z M111.6,22.4c0.5-1.7,1-3.2,1.4-4.7c0,0,0.1,0,0.1,0
		c0.5,1.5,1,2.9,1.5,4.5C113.6,22.2,112.6,22.3,111.6,22.4z"/>
	<path class="st6" d="M186.7,11.5c-1.8-0.7-3.6-0.7-5.4,0c-0.9,0.4-1.7,1-2.2,1.8c-1.3,2-1.1,4.8,0.6,6.6c0.9,1,2,1.7,3,2.6
		c0.5,0.4,1,0.8,1.3,1.3c0.5,0.7,0.5,1.6,0.1,2.2c-0.4,0.5-1.2,0.7-1.9,0.5c-0.8-0.2-1.2-0.8-1.5-1.5c-0.2-0.7-0.3-1.5-0.5-2.2
		c-1,0-2,0.3-2.9,0.8c-0.3,0.1-0.4,0.3-0.4,0.6c0.1,0.9,0.4,1.7,0.9,2.5c1.5,2.2,4.2,3.2,6.9,2.6c3.4-0.8,5.2-4,3.9-7.5
		c-0.5-1.2-1.5-2.1-2.4-2.9c-0.8-0.7-1.6-1.4-2.4-2.1c-0.5-0.5-0.7-1.2-0.7-1.9c0-0.7,0.5-1.1,1.1-1.1c0.7,0,1.4,0.4,1.7,1.2
		c0.2,0.5,0.3,1,0.4,1.5c1.2-0.1,2.3-0.2,3.3-0.8c0.1-0.1,0.3-0.3,0.2-0.5C189.3,13.5,188.4,12.2,186.7,11.5z"/>
	<path class="st6" d="M229.6,15.1c-0.4-1.7-1.3-3-2.9-3.7c-1.2-0.5-2.4-0.5-3.6-0.4c-2,0.3-3.7,1.2-4.4,3.2c-0.8,2.1-0.3,4,1.2,5.6
		c0.7,0.8,1.6,1.4,2.4,2.1c0.7,0.7,1.7,1.2,2,2.2c0.4,1.2-0.1,2.4-1.5,2.4c-1,0-1.8-0.7-2.1-1.9c-0.1-0.6-0.2-1.2-0.3-1.9
		c-0.7,0-2.5,0.4-3.2,0.7c-0.1,0.1-0.2,0.3-0.2,0.5c0,0.8,0.3,1.6,0.7,2.3c1.5,2.3,4.2,3.4,7,2.7c2.5-0.6,4.2-2.6,4.3-5
		c0.1-2-0.7-3.5-2.1-4.7c-1-0.8-2-1.6-2.9-2.5c-0.6-0.5-1-1.2-1-2c0-0.7,0.5-1.2,1.2-1.2c0.7,0,1.3,0.5,1.5,1.2
		c0.2,0.5,0.3,0.9,0.4,1.4c1.2-0.1,2.3-0.2,3.4-0.8C229.6,15.5,229.7,15.2,229.6,15.1z"/>
	<path class="st6" d="M199,11.3c-1.1-0.3-2.2-0.4-3.3-0.2c-1.9,0.2-3.6,1.1-4.4,2.9c-0.8,2-0.6,3.9,0.7,5.5c0.7,0.8,1.6,1.5,2.4,2.2
		c0.7,0.7,1.5,1.3,2.2,2.1c0.5,0.6,0.5,1.6,0.1,2.2c-0.5,0.6-1.1,0.7-1.8,0.6c-0.7-0.1-1.2-0.7-1.5-1.3c-0.3-0.8-0.5-1.6-0.7-2.4
		c-0.6-0.1-2.7,0.4-3.1,0.7c-0.1,0.1-0.2,0.2-0.2,0.4c0,0.9,0.2,1.7,0.7,2.4c1.6,2.5,4.9,3.7,7.8,2.6c2.6-1,4.1-3.5,3.4-6.4
		c-0.3-1.5-1.2-2.5-2.3-3.4c-0.8-0.7-1.7-1.3-2.5-2.1c-0.4-0.4-0.7-0.9-0.9-1.4c-0.2-0.5-0.2-1.2,0.4-1.6c0.5-0.4,1-0.3,1.5,0
		c0.2,0.1,0.5,0.3,0.6,0.6c0.2,0.5,0.5,1.2,0.7,1.8c1.1-0.1,2.2-0.2,3.2-0.8c0.1,0,0.3-0.2,0.2-0.4C201.9,13.3,200.9,11.9,199,11.3z
		"/>
	<path class="st6" d="M162.9,15.2c-0.3-1.8-1.5-2.9-3.2-3.3c-2.9-0.7-5.7-0.2-8.5,0.9c-0.1,0.1-0.2,0.2-0.2,0.4c0,0.5-0.1,1-0.1,1.6
		c0.1,3.3,0.1,6.5,0.3,9.8c0.1,1.6,0.3,3.2,0.5,4.7c0,0.1,0.2,0.4,0.2,0.4c1.2,0.1,2.4,0.2,3.6,0.3c0-0.5,0-0.7,0-1
		c0-1.6-0.1-3.2-0.2-4.8c0-0.4,0.1-0.5,0.5-0.7c2.2-0.7,4.2-1.8,5.7-3.7C162.6,18.5,163.1,16.9,162.9,15.2z M157.7,19.3
		c-0.5,0.8-1.3,1.2-2.3,1.5c0.1-2.2,0.2-4.4,0.4-6.6c1.6-0.2,2.5,0.5,2.6,2C158.3,17.3,158.3,18.4,157.7,19.3z"/>
	<path class="st6" d="M138.4,13.4c-0.2,0.1-0.3,0.4-0.3,0.5c0.2,2.7,0.5,5.5,0.7,8.3c0.1,2.2,0.1,4.4,0.1,6.6c0,0.1,0,0.2,0,0.5
		c1.2-0.1,2.3-0.3,3.4-0.5c0.1,0,0.2-0.2,0.2-0.3c0.1-0.7,0.2-1.4,0.2-2.1c0.1-2.5,0.2-4.9,0.2-7.4c0-2,0-3.9,0-5.9
		C141.4,12.7,139.9,12.6,138.4,13.4z"/>
</g>
<g>
	<path class="st7" d="M123.7,36.6c-0.1,0-0.2,0-0.2,0c-0.3-0.1-0.6,0-0.8,0.3c-0.5,0.8-0.9,1.6-1.4,2.4c-0.4-0.7-0.8-1.3-1.2-2
		c-0.7-1.1-0.9-1.1-2-0.5c-0.3,0.2-0.4,0.3-0.4,0.7c0.1,1,0.1,2,0.2,3c0.1,0.9,0.2,1.7,0.3,2.6c0,0.1,0.2,0.3,0.3,0.3
		c0.5,0,0.9-0.1,1.4-0.1c-0.3-1.3-0.5-2.6-0.3-4c0.3,0.6,0.7,1.2,1,1.8c0.2,0.5,0.5,0.4,0.8,0.5c0.4,0,0.5-0.2,0.7-0.5
		c0.3-0.6,0.6-1.2,0.9-1.8c0,0,0.1,0,0.2,0c-0.1,1.5-0.1,3.1-0.2,4.7c0.5-0.1,1-0.2,1.5-0.2c0.3-0.1,0.3-0.2,0.3-0.5
		c0-1.9-0.1-3.9-0.1-5.8C124.4,37,124.1,36.7,123.7,36.6z"/>
	<path class="st7" d="M193.7,37.1c0,0.7,0.1,1.3,0.1,1.9c0,0.4,0,0.7,0,1.2c-0.4-0.8-0.8-1.6-1.2-2.3c-0.6-1-0.9-1.1-2-0.6
		c0,0-0.1,0-0.2,0.1c-0.3,0.1-0.3,0.3-0.3,0.6c0.1,1.5,0.2,3,0.2,4.5c0,0.5,0.1,1,0.2,1.5c0.4,0,0.8-0.1,1.1-0.1
		c0.3,0,0.3-0.2,0.3-0.4c0-1,0-2,0-3c0-0.2,0-0.3,0-0.4c0.1,0,0.1,0,0.2,0c0.4,0.8,0.8,1.6,1.2,2.5c0.5,1.1,0.5,1,1.6,0.9
		c0.4,0,0.5-0.2,0.5-0.6c0-1.3,0.1-2.6,0.2-4c0-0.7,0-1.4,0-2.3c-0.6,0.1-1.1,0.2-1.6,0.2C193.7,36.7,193.6,36.9,193.7,37.1z"/>
	<path class="st7" d="M98.3,36.6c-0.4,0.1-0.5,0.2-0.4,0.6c0.1,0.9,0.1,1.8,0.2,2.8c0,0-0.1,0-0.1,0c-0.3-0.7-0.7-1.4-1.1-2.1
		c-0.6-1.1-0.9-1.2-2.1-0.7c0,0-0.1,0-0.2,0.1c-0.3,0.1-0.3,0.3-0.3,0.6c0.1,1.3,0.1,2.6,0.2,3.9c0,0.7,0.1,1.3,0.2,2
		c0.3,0,0.7-0.1,1-0.1c0.4,0,0.5-0.2,0.5-0.5c0-0.9,0-1.9,0-2.8c0-0.2,0-0.3,0-0.5c0.2,0.1,0.3,0.2,0.3,0.3c0.4,0.9,0.9,1.7,1.3,2.6
		c0.2,0.3,0.3,0.6,0.8,0.5c0.3-0.1,0.7-0.1,1.1-0.2c0.1-2.3,0.3-4.5,0-6.8C99.2,36.5,98.7,36.6,98.3,36.6z"/>
	<path class="st7" d="M211.6,40.3c0.2-0.2,0.4-0.3,0.6-0.6c1-1.2,0.5-2.8-1.1-3.2c-0.9-0.2-1.8-0.1-2.6,0.3c-0.5,0.2-0.6,0.5-0.6,1
		c0.1,1.7,0.2,3.5,0.3,5.2c0,0.2,0,0.3,0,0.5c0.5,0,1,0.1,1.5,0.1c0.1-0.9,0.2-1.7,0.2-2.6c0.1,0,0.1,0,0.2-0.1
		c0.7,0.9,1.1,2,1.6,3.1c0.4-0.2,0.8-0.4,1.1-0.6c0.4-0.2,0.4-0.5,0.2-0.8C212.6,41.9,212.1,41.1,211.6,40.3z M209.9,40
		c0-0.9,0-1.6,0-2.5c0.5,0,0.8,0.3,0.9,0.8C210.9,39.1,210.7,39.7,209.9,40z"/>
	<path class="st7" d="M115.9,39.8c1-1.1,0.7-2.8-0.8-3.2c-1.1-0.3-2.1-0.2-3.1,0.3c-0.3,0.2-0.4,0.4-0.3,0.7
		c0.1,1.8,0.2,3.6,0.3,5.3c0,0.2,0,0.3,0,0.5c0.5,0,1,0.1,1.5,0.1c0-0.2,0.1-0.4,0.1-0.6c0-0.5,0.1-1.1,0.1-1.6
		c0-0.1,0.1-0.3,0.1-0.4c0.1,0.1,0.2,0.2,0.3,0.3c0.4,0.8,0.8,1.6,1.1,2.4c0.1,0.2,0.2,0.3,0.5,0.2c0.5-0.2,0.9-0.5,1.4-0.7
		c-0.6-1-1.2-2-1.8-2.9C115.5,40.2,115.7,40,115.9,39.8z M113.7,39.9c0-0.8,0-1.6,0-2.5c0.6,0.1,0.8,0.4,0.9,1
		C114.7,39.2,114.3,39.8,113.7,39.9z"/>
	<path class="st7" d="M168.6,42.2c-0.4-0.7-0.8-1.3-1.3-1.9c0.2-0.1,0.3-0.2,0.5-0.4c1.2-1.2,0.8-2.9-0.7-3.3
		c-1.1-0.3-2.1-0.1-3,0.4c-0.2,0.1-0.3,0.3-0.3,0.6c0.1,2,0.2,3.9,0.3,5.8c0,0,0,0,0.1,0.1c0.5,0,0.9,0.1,1.5,0.1
		c0-0.8,0.1-1.5,0.1-2.1c0-0.2,0.1-0.3,0.2-0.5c0.1,0.1,0.3,0.2,0.3,0.3c0.5,0.9,0.9,1.8,1.4,2.7c0.3-0.1,0.6-0.2,0.8-0.4
		c0.7-0.4,0.7-0.5,0.3-1.2C168.7,42.4,168.7,42.3,168.6,42.2z M165.8,40c0-0.8,0-1.6,0-2.5c0.5,0,0.8,0.2,0.9,0.7
		C166.8,39,166.5,39.7,165.8,40z"/>
	<path class="st7" d="M205.3,37.2c-0.4,0.1-0.5,0.2-0.4,0.6c0.3,1.5,0.5,3.1,0.1,4.6c-0.1,0.2-0.3,0.4-0.4,0.7
		c-0.1-0.2-0.4-0.4-0.4-0.7c0-1,0-1.9,0-2.8c0-0.6,0.1-1.2,0.1-1.8c-1.3-0.4-1.7-0.2-1.9,1.2c0,0,0,0.1,0,0.1
		c-0.2,1.2-0.3,2.4,0,3.6c0.3,1.1,1.2,1.6,2.3,1.5c1.1-0.2,1.9-1,2.2-2.2c0.3-1.2,0.3-2.5,0.1-3.7C206.8,36.9,206.7,36.8,205.3,37.2
		z"/>
	<path class="st7" d="M109.3,36.9c-1-0.3-2-0.1-2.8,0.7c-1.2,1.2-1.5,3.5-0.7,5c0.4,0.8,1.1,1.2,2,1.1c0.8,0,1.5-0.3,2-0.9
		c0.8-0.9,1-2,1-3.1c0-0.2,0-0.5,0-0.7C110.8,37.9,110.2,37.1,109.3,36.9z M108.9,41.6c0,0.2-0.1,0.4-0.2,0.6
		c-0.2,0.4-0.7,0.4-0.9,0c-0.2-0.2-0.3-0.5-0.3-0.8c0-0.9,0-1.8,0.1-2.8c0-0.1,0-0.2,0.1-0.3c0.2-0.3,0.3-0.6,0.7-0.5
		c0.3,0.1,0.5,0.3,0.6,0.7c0.1,0.5,0.1,1,0.2,1.5C109,40.6,108.9,41.1,108.9,41.6z"/>
	<path class="st7" d="M187.7,36.9c-1.1-0.3-2.1,0-2.9,0.9c-1,1.2-1.1,2.6-0.8,4.1c0.1,0.4,0.3,0.8,0.6,1.2c0.8,1,2.6,0.8,3.6-0.3
		c0.8-0.9,1-2,1.1-3.1c0-0.3,0-0.5,0-0.7C189.1,37.9,188.5,37.1,187.7,36.9z M187.1,41.9c-0.1,0.2-0.3,0.5-0.6,0.6
		c-0.3,0.1-0.5-0.2-0.7-0.5c-0.4-1.2-0.4-2.3,0-3.5c0.1-0.2,0.4-0.5,0.7-0.5c0.3-0.1,0.6,0.2,0.6,0.5c0.1,0.5,0.2,1.1,0.2,1.7
		C187.3,40.8,187.3,41.4,187.1,41.9z"/>
	<path class="st7" d="M223.7,37.5c-0.7-1-2.5-1-3.6-0.1c-1,0.8-1.2,1.9-1.3,3.2c0,0.2,0.1,0.6,0.1,1c0.3,1.3,1.1,2.1,2.3,2.1
		c0.8,0,1.6-0.3,2.1-1c0.8-1.1,1.1-2.3,1-3.6C224.2,38.5,224,38,223.7,37.5z M222.2,41.9c-0.1,0.3-0.3,0.7-0.6,0.6
		c-0.3,0-0.6-0.3-0.7-0.5c-0.4-1.2-0.4-2.3,0-3.5c0.1-0.3,0.3-0.6,0.7-0.6c0.4,0,0.5,0.3,0.6,0.6c0.1,0.5,0.2,1,0.2,1.6
		C222.4,40.7,222.3,41.3,222.2,41.9z"/>
	<path class="st7" d="M173.6,37.5c-0.1-0.2-0.4-0.3-0.6-0.4c-0.2-0.1-0.5-0.1-0.8-0.1c-0.3-0.1-0.5,0-0.6,0.4
		c-0.5,1.8-1.1,3.6-2,5.2c-0.2,0.5-0.1,0.7,0.3,0.9c0.2,0.1,0.3,0.2,0.5,0.2c0.4,0.2,0.5,0.1,0.7-0.3c0.5-1.2,0.5-1.2,1.7-1.2
		c0,0,0,0,0.1,0c0.5-0.1,0.7,0.2,0.7,0.6c0.1,0.6,0.2,1.2,0.3,1.8c0.7-0.2,1.2-0.3,1.8-0.5c-0.1-0.6-0.2-1-0.3-1.5
		C175.1,40.8,174.5,39.1,173.6,37.5z M172,41.1c0.2-0.7,0.4-1.3,0.6-1.9c0,0,0,0,0.1,0c0.2,0.6,0.4,1.2,0.6,1.8
		C172.8,41,172.5,41.1,172,41.1z"/>
	<path class="st7" d="M129.1,37.9c-0.3-0.7-0.7-0.9-1.4-0.9c-0.5,0-0.7,0.1-0.8,0.6c-0.5,1.9-1.2,3.7-2.2,5.6c0.4,0.2,0.7,0.4,1,0.6
		c0.3,0.2,0.5,0.1,0.6-0.3c0.5-1.2,0.5-1.2,1.8-1.2c0.1,0,0.2,0,0.3,0c0.3,0,0.4,0.1,0.4,0.3c0.1,0.7,0.3,1.3,0.4,2
		c0.3,0,0.6-0.1,0.8-0.2c1-0.2,1-0.3,0.8-1.2C130.5,41.4,129.9,39.6,129.1,37.9z M127.2,41.1c0.2-0.7,0.4-1.3,0.5-1.9
		c0,0,0.1,0,0.1,0c0.2,0.6,0.4,1.2,0.6,1.8C128,41,127.7,41.1,127.2,41.1z"/>
	<path class="st7" d="M159.7,37c-0.3,0-0.5,0.1-0.5,0.4c-0.5,1.8-1.1,3.4-1.9,5c-0.3,0.7-0.3,0.8,0.5,1.2c0,0,0.1,0,0.2,0.1
		c0.3,0.2,0.6,0.2,0.7-0.3c0.2-1.1,0.9-1.3,1.8-1.2c0.5,0,0.7,0.2,0.7,0.7c0.1,0.6,0.2,1.2,0.3,1.8c0.6-0.2,1.1-0.3,1.8-0.5
		c-0.3-2.1-0.9-4.1-1.8-6.1C161,37.3,160.5,37,159.7,37z M159.4,41.1c0.2-0.7,0.3-1.3,0.5-1.9c0,0,0.1,0,0.1,0
		c0.2,0.6,0.4,1.2,0.6,1.8C160.2,41,159.9,41.1,159.4,41.1z"/>
	<path class="st7" d="M148.3,38.1c-0.3-0.7-0.8-1-1.6-1c-0.4,0-0.6,0.1-0.7,0.5c-0.5,1.8-1.1,3.6-2,5.3c0,0.1-0.1,0.3-0.1,0.3
		c0.4,0.3,0.8,0.5,1.2,0.7c0,0,0.3-0.3,0.4-0.6c0.1-0.2,0.2-0.3,0.2-0.5c0-0.3,0.2-0.4,0.5-0.4c0.5,0,0.9,0,1.3,0
		c0.2,0,0.3,0.1,0.4,0.3c0.1,0.7,0.2,1.3,0.4,2.1c0.5-0.2,0.9-0.3,1.4-0.3c0.3-0.1,0.3-0.3,0.3-0.6
		C149.7,41.8,149.1,39.9,148.3,38.1z M146.3,41.1c0.2-0.7,0.3-1.3,0.5-1.9c0,0,0.1,0,0.1,0c0.2,0.6,0.4,1.2,0.6,1.8
		C147.2,41,146.8,41,146.3,41.1z"/>
	<path class="st7" d="M227.3,37.6c0.4-0.1,0.7,0,0.8,0.4c0.1,0.2,0.1,0.4,0.2,0.7c0.3-0.1,0.7-0.2,1.1-0.3c0.3,0,0.3-0.2,0.3-0.5
		c-0.3-0.9-1-1.4-2.1-1.5c-1.6-0.1-2.8,1.2-2.4,2.6c0.2,0.7,0.7,1.2,1.3,1.6c0.3,0.2,0.6,0.5,0.9,0.7s0.4,0.6,0.2,1
		c-0.1,0.2-0.4,0.3-0.6,0.4c-0.4,0.1-0.7-0.2-0.8-0.6c-0.2-0.3-0.2-0.7-0.3-1c-0.3,0.1-0.6,0.2-0.9,0.2c-0.3,0.1-0.5,0.3-0.3,0.6
		c0.4,1.3,1.7,2,3.1,1.7c1.5-0.3,2.3-2,1.4-3.3c-0.3-0.5-0.9-0.9-1.4-1.3c-0.3-0.2-0.5-0.5-0.6-0.8
		C226.9,38.2,226.9,37.8,227.3,37.6z"/>
	<path class="st7" d="M216.5,36.5c-0.9,0-1.7,0.2-2.2,1c-0.5,0.8-0.4,1.6,0.1,2.3c0.2,0.3,0.6,0.6,0.9,0.9c0.3,0.3,0.7,0.6,1,1
		c0.3,0.3,0.2,0.8-0.1,1.1c-0.3,0.2-0.8,0.2-1.1-0.2c-0.1-0.2-0.2-0.3-0.2-0.5c-0.1-0.2-0.1-0.5-0.2-0.8c-0.3,0.1-0.6,0.1-0.8,0.2
		c-0.5,0.2-0.6,0.3-0.4,0.9c0.2,0.7,0.7,1.1,1.3,1.3c1.2,0.5,2.6,0.1,3.1-0.9c0.6-1,0.3-2.1-0.8-3c-0.3-0.3-0.7-0.5-0.9-0.8
		c-0.2-0.2-0.3-0.4-0.4-0.6c-0.2-0.3-0.1-0.6,0.2-0.7c0.3-0.2,0.6,0,0.8,0.3c0.1,0.2,0.2,0.5,0.3,0.8c0.3-0.1,0.7-0.2,1.1-0.2
		c0.3-0.1,0.3-0.2,0.2-0.5C218.2,37.1,217.6,36.6,216.5,36.5z"/>
	<path class="st7" d="M156.2,36.9c-1-0.2-2.1,0-3.1,0.3c-0.1,0-0.3,0.3-0.3,0.4c0.1,2.1,0.2,4.2,0.3,6.3c0,0.1,0.1,0.2,0.2,0.2
		c0.4,0,0.8,0.1,1.3,0.1c0-0.8-0.1-1.5-0.1-2.1c0-0.3,0.1-0.5,0.4-0.6c0.9-0.3,1.6-0.7,2.2-1.5C157.9,39.1,158,37.3,156.2,36.9z
		 M154.5,40.5c0-0.8,0.1-1.6,0.1-2.5c0-0.1,0.2-0.2,0.3-0.2c0.4,0,0.7,0.2,0.8,0.8C155.9,39.5,155.4,40.4,154.5,40.5z"/>
	<path class="st7" d="M101.5,44.4c0.4,0,0.8-0.1,1.2-0.1c0.3,0,0.4-0.2,0.4-0.5c0-0.8,0.1-1.5,0.1-2.2c0-0.3,0.2-0.5,0.5-0.5
		c0.4,0,0.8,0,1.3,0c0-0.5-0.1-1-0.1-1.5c-0.6,0.1-1.1,0.1-1.6,0.2c0-0.4,0-0.8-0.1-1.2c0-0.3,0.1-0.4,0.4-0.4
		c0.6,0,1.2-0.1,1.8-0.2c0-0.5,0-1,0-1.5c-1.5,0.2-2.9,0.4-4.4,0.6C101.1,39.5,101.3,41.9,101.5,44.4z"/>
	<path class="st7" d="M143.5,41.7c-0.4-0.1-0.7-0.2-1.1-0.2c0,0.3,0,0.6-0.1,0.7c-0.2,0.2-0.4,0.5-0.6,0.6c-0.2,0-0.5-0.2-0.7-0.3
		c-0.2-0.2-0.2-0.5-0.3-0.8c-0.1-1-0.2-2,0.4-2.9c0.1-0.2,0.4-0.3,0.5-0.3c0.2,0,0.3,0.3,0.4,0.5c0.1,0.2,0.1,0.5,0.2,0.8
		c0.6-0.1,1.1-0.2,1.6-0.3c-0.3-1.8-1.3-2.2-2.6-2c-0.7,0.1-1.2,0.5-1.6,1c-0.9,1-1.1,2.3-1,3.6c0,0.4,0.2,0.8,0.4,1.1
		c0.5,0.9,1.6,1.2,2.8,1c0.9-0.2,1.5-0.7,1.8-1.6C143.7,42.1,143.9,41.8,143.5,41.7z"/>
	<path class="st7" d="M180.7,38.6c0.1-0.1,0.3-0.3,0.5-0.2c0.2,0,0.3,0.2,0.4,0.4c0.1,0.2,0.1,0.5,0.2,0.9c0.5-0.1,1.1-0.2,1.8-0.3
		c-0.3-0.6-0.4-1-0.6-1.4c-0.6-0.8-2-0.8-3-0.2c-1.4,1-1.8,2.8-1.6,4.3c0.2,0.8,0.5,1.4,1.3,1.7c0.9,0.3,1.8,0.3,2.6-0.2
		c0.3-0.2,0.6-0.4,0.7-0.7c0.2-0.3,0.3-0.8,0.2-1.1c0-0.2-0.6-0.2-1-0.3c-0.1,0-0.2,0-0.3,0c0,0.2,0,0.5-0.1,0.7
		c-0.1,0.3-0.3,0.7-0.7,0.6c-0.3,0-0.5-0.2-0.8-0.4c-0.1-0.1-0.2-0.3-0.2-0.4c0-0.7-0.1-1.5,0-2.2C180.3,39.4,180.5,38.9,180.7,38.6
		z"/>
	<path class="st7" d="M200.1,37.3c-1-0.2-1.8,0.1-2.5,0.8c-1.1,1.2-1.4,2.6-1.1,4.1c0.2,0.9,0.8,1.6,1.8,1.7c0.5,0.1,1,0,1.5-0.1
		c0.9-0.2,1.5-0.9,1.6-1.8c0-0.1-0.1-0.3-0.2-0.3c-0.4-0.1-0.7-0.2-1.1-0.2c-0.1,0.3-0.1,0.6-0.2,0.8c-0.1,0.2-0.4,0.5-0.6,0.5
		c-0.2,0-0.5-0.2-0.7-0.4c-0.1-0.1-0.2-0.3-0.2-0.5c-0.2-1-0.2-2,0.2-3c0-0.2,0.1-0.3,0.2-0.4c0.3-0.4,0.7-0.3,0.9,0.1
		c0.1,0.3,0.2,0.6,0.3,1c0.4-0.1,0.9-0.2,1.3-0.3c0.1,0,0.2-0.2,0.2-0.3C201.6,38.3,200.9,37.4,200.1,37.3z"/>
	<path class="st7" d="M134.6,36.3c-1.2,0.1-2.4,0.2-3.6,0.3c-1.1,0.2-1.2,0.3-0.8,1.4c0,0,0,0,0.1,0.1c0.4,0,0.8-0.1,1.4-0.1
		c0.1,1.8,0.2,3.6,0.3,5.4c0.6-0.1,1.1-0.2,1.7-0.2c0-1.8,0-3.6,0-5.3c0.2,0,0.3,0,0.4,0c1,0,1,0,1-1.1
		C135.1,36.4,135,36.2,134.6,36.3z"/>
	<path class="st7" d="M92.9,37.4c-0.5-0.2-1-0.1-1.5,0.2c-0.1,0.1-0.2,0.2-0.2,0.3c0.1,1.9,0.2,3.8,0.3,5.7c0,0.1,0,0.2,0,0.3
		c0.4,0,0.8-0.1,1.2-0.2c0.1,0,0.2-0.2,0.2-0.3c0-1.9,0.1-3.8,0.2-5.7C93.2,37.6,93.1,37.5,92.9,37.4z"/>
	<path class="st7" d="M136.8,37.3c-0.2,0-0.4,0.1-0.7,0.2c-0.3,0.1-0.4,0.3-0.4,0.7c0.1,1.1,0.2,2.3,0.3,3.4c0,0.8,0,1.6,0,2.5
		c0.5,0,0.8-0.1,1.1-0.1c0.3,0,0.5-0.2,0.5-0.5c0-1.7,0.1-3.5,0.2-5.2C137.7,37.4,137.6,37.3,136.8,37.3z"/>
	<path class="st7" d="M128.5,36.5c0.3-0.3,0.5-0.8,0.7-1.4c-0.6,0-1,0-1.5-0.1c-0.1,0.5-0.2,1-0.3,1.5
		C127.8,36.5,128.3,36.6,128.5,36.5z"/>
</g>
</svg>
